<?xml version="1.0" standalone="no"?>
<!DOCTYPE svg PUBLIC "-//W3C//DTD SVG 1.1//EN" "http://www.w3.org/Graphics/SVG/1.1/DTD/svg11.dtd" >
<svg xmlns="http://www.w3.org/2000/svg">
<metadata></metadata>
<defs>
<font id="zurich_ltcn_btlight_italic" horiz-adv-x="940" >
<font-face units-per-em="2048" ascent="1556" descent="-492" />
<missing-glyph horiz-adv-x="471" />
<glyph unicode="&#xd;" horiz-adv-x="471" />
<glyph unicode=" "  horiz-adv-x="471" />
<glyph unicode="&#x09;" horiz-adv-x="471" />
<glyph unicode="&#xa0;" horiz-adv-x="471" />
<glyph unicode="!" horiz-adv-x="569" d="M147 360l226 1115h145l-262 -1115h-109zM49 0l33 154h154l-33 -154h-154z" />
<glyph unicode="&#x22;" horiz-adv-x="551" d="M451 1434v-553h-86v553h86zM186 1434v-553h-86v553h86z" />
<glyph unicode="#" horiz-adv-x="1575" d="M979 866h-270l-99 -282h269zM915 1454l-174 -498h271l176 498h110l-174 -498h322l-31 -90h-323l-101 -282h348l-30 -90h-351l-174 -494h-112l176 494h-270l-179 -494h-110l174 494h-334l31 90h336l100 282h-360l28 90h365l176 498h110z" />
<glyph unicode="$" d="M442 856l101 461h-8q-100 0 -160 -62t-60 -165q0 -57 27 -107.5t100 -126.5zM485 657l-118 -551h18q119 0 188.5 75.5t69.5 203.5q0 67 -34 127.5t-124 144.5zM25 401h120q-3 -22 -4.5 -41t-1.5 -36q0 -88 37 -139t113 -68l125 600q-121 112 -168 192.5t-47 167.5 q0 157 96 245.5t266 88.5l37 174h84l-37 -180q117 -15 178.5 -86t61.5 -191q0 -20 -1.5 -47t-5.5 -57h-107q2 32 3.5 56.5t1.5 41.5q0 85 -37.5 130.5t-117.5 58.5l-107 -514q145 -134 196.5 -219t51.5 -175q0 -183 -96.5 -287t-268.5 -104q-20 0 -30 0.5t-19 1.5l-41 -194 h-84l43 200q-119 19 -182.5 95t-63.5 202q0 27 1 46.5t4 37.5z" />
<glyph unicode="%" horiz-adv-x="1415" d="M1053 627q-42 0 -75.5 -26.5t-49.5 -74.5q-30 -86 -48 -181t-18 -155t27 -91t80 -31q47 0 80 33.5t57 107.5q26 77 41.5 161t15.5 138q0 61 -26.5 90t-83.5 29zM752 197q0 89 23 194.5t59 179.5q34 72 87 107t128 35q108 0 165.5 -54t57.5 -155q0 -89 -24.5 -201 t-61.5 -192q-30 -64 -85 -96.5t-134 -32.5q-102 0 -158.5 56t-56.5 159zM156 -25l977 1475h114l-977 -1475h-114zM432 1362q-42 0 -75 -26.5t-50 -73.5q-29 -86 -47 -182t-18 -156q0 -61 26.5 -92t79.5 -31q47 0 80 33.5t57 107.5q27 78 42.5 162t15.5 139q0 61 -27 90 t-84 29zM131 930q0 90 23 196t59 181q34 70 87 104.5t128 34.5q108 0 165.5 -54t57.5 -155q0 -88 -24 -199t-62 -192q-29 -64 -84.5 -96.5t-134.5 -32.5q-103 0 -159 55.5t-56 157.5z" />
<glyph unicode="&#x26;" horiz-adv-x="999" d="M567 106l135 629h-219q-90 0 -134 -18.5t-75 -63.5q-43 -64 -73.5 -174t-30.5 -211q0 -85 42 -123.5t136 -38.5h219zM725 840l66 305h129l-66 -305h139l-24 -105h-140l-153 -735h-336q-89 0 -137 13t-84 42q-42 34 -61 87t-19 132q0 227 81.5 371.5t213.5 157.5 q-60 28 -89.5 81t-29.5 134q0 78 23 168t57 151q44 77 105.5 107.5t181.5 30.5h278l-24 -111h-250q-76 0 -119 -20.5t-64 -65.5q-27 -57 -45 -140t-18 -145q0 -76 43.5 -114.5t130.5 -38.5h211z" />
<glyph unicode="'" horiz-adv-x="285" d="M186 1434v-553h-86v553h86z" />
<glyph unicode="(" horiz-adv-x="569" d="M147 -285q-16 146 -24 259t-8 202q0 347 97.5 659.5t317.5 661.5h95q-204 -377 -302 -749.5t-98 -767.5q0 -53 2 -120.5t6 -144.5h-86z" />
<glyph unicode=")" horiz-adv-x="569" d="M371 1497q16 -146 24 -258.5t8 -202.5q0 -346 -97.5 -658.5t-317.5 -662.5h-97q205 379 303.5 752.5t98.5 767.5q0 52 -2 118.5t-6 143.5h86z" />
<glyph unicode="*" d="M557 1120l-115 -246l-98 58l156 221l-271 -23v113l271 -22l-156 221l98 55l115 -244l115 244l96 -55l-156 -221l271 22v-113l-271 23l156 -221l-96 -58z" />
<glyph unicode="+" horiz-adv-x="1706" d="M893 1221v-570h559v-82h-559v-569h-80v569h-559v82h559v570h80z" />
<glyph unicode="," horiz-adv-x="469" d="M-113 -201l158 369h164l-203 -369h-119z" />
<glyph unicode="-" horiz-adv-x="569" d="M10 457l25 114h422l-23 -114h-424z" />
<glyph unicode="." horiz-adv-x="469" d="M4 0l33 154h153l-32 -154h-154z" />
<glyph unicode="/" horiz-adv-x="569" d="M31 -190h-105l590 1687h105z" />
<glyph unicode="0" d="M33 311q0 42 7.5 105t22.5 145q42 234 76.5 371t75.5 250q49 132 139 201t211 69q162 0 247 -86.5t85 -251.5q0 -39 -8 -97.5t-25 -148.5q-42 -229 -76.5 -374t-66.5 -234q-51 -140 -143 -212.5t-218 -72.5q-156 0 -241.5 87.5t-85.5 248.5zM569 1346q-79 0 -135 -44.5 t-98 -142.5q-16 -36 -42.5 -136.5t-53.5 -229.5q-40 -187 -59 -306.5t-19 -179.5q0 -104 54.5 -164.5t148.5 -60.5q73 0 128.5 46t96.5 142q20 48 45 139t55 234q45 216 61.5 318.5t16.5 158.5q0 110 -51 168t-148 58z" />
<glyph unicode="1" d="M283 0l262 1237q-58 -50 -131.5 -94t-167.5 -86l28 131q102 52 181 111.5t139 127.5h119l-303 -1427h-127z" />
<glyph unicode="2" d="M-57 0l26 129l463 485q193 202 263.5 318t70.5 215q0 90 -55 142t-150 52q-104 0 -170 -62.5t-80 -174.5h-129q28 173 122.5 259.5t256.5 86.5q156 0 246 -82t90 -223q0 -128 -88 -271.5t-328 -388.5l-364 -372h588l-25 -113h-737z" />
<glyph unicode="3" d="M6 358h129v-5q-4 -36 -4 -50q0 -101 55 -156t156 -55q63 0 106.5 20.5t77.5 65.5q39 51 67 140.5t28 170.5q0 109 -63 157t-208 48h-10l25 107q4 0 13 -1q55 -3 77 -3q146 0 222.5 92.5t76.5 269.5q0 86 -50.5 133t-142.5 47q-100 0 -161.5 -58.5t-77.5 -170.5h-129 q22 164 116 252t246 88q153 0 237.5 -75.5t84.5 -211.5q0 -190 -78 -306t-219 -134q87 -34 128.5 -91.5t41.5 -146.5q0 -84 -24.5 -174t-68.5 -168q-45 -80 -127 -124t-190 -44q-158 0 -248 84t-90 232q0 26 1 40.5t3 26.5z" />
<glyph unicode="4" d="M125 461h416l123 588q14 65 34 143.5t43 165.5h-6q-22 -39 -44.5 -75.5t-49.5 -78.5zM430 0l76 354h-516l28 133l656 940h184l-205 -966h168l-22 -107h-168l-76 -354h-125z" />
<glyph unicode="5" d="M25 352h132q0 -10 -0.5 -22t-0.5 -33q0 -108 49 -161.5t147 -53.5q77 0 130.5 34t92.5 107q10 20 22.5 58t25.5 90q17 69 25.5 122.5t8.5 94.5q0 111 -50.5 171t-143.5 60q-79 0 -137 -38.5t-97 -116.5h-125l191 763h631l-23 -108h-514l-121 -490q43 44 99 65t125 21 q137 0 218 -79t81 -213q0 -132 -33.5 -267.5t-79.5 -210.5q-54 -87 -135 -127.5t-203 -40.5q-152 0 -237 80t-85 222q0 16 2 35t5 38z" />
<glyph unicode="6" d="M455 766q-134 0 -209.5 -118.5t-75.5 -330.5q0 -112 58 -177.5t157 -65.5q79 0 130.5 38t86.5 124q28 67 45 156t17 167q0 101 -54 154t-155 53zM254 778q52 45 106 65.5t117 20.5q151 0 234.5 -77.5t83.5 -217.5q0 -42 -9 -102.5t-26 -134.5q-17 -75 -39 -132t-47 -91 q-50 -69 -121 -101.5t-170 -32.5q-158 0 -247 87.5t-89 242.5q0 63 16.5 164.5t61.5 304.5q40 179 69 284t56 171q44 107 129 164t201 57q169 0 249 -68.5t80 -214.5q0 -12 -0.5 -25.5t-3.5 -41.5h-122q0 7 0.5 16t0.5 27q0 101 -48 154t-140 53q-134 0 -210 -123t-132 -449 z" />
<glyph unicode="7" d="M51 0l731 1315h-596l25 112h733l-24 -116l-715 -1311h-154z" />
<glyph unicode="8" d="M549 1346q-104 0 -167 -94.5t-63 -254.5q0 -91 52 -143.5t141 -52.5q122 0 188 92t66 262q0 102 -50 146.5t-167 44.5zM418 702q-121 0 -189.5 -107.5t-68.5 -297.5q0 -101 54 -160t146 -59q130 0 203.5 112t73.5 310q0 98 -56.5 150t-162.5 52zM336 772 q-72 39 -105.5 96.5t-33.5 141.5q0 207 96.5 323.5t269.5 116.5q158 0 243 -72.5t85 -208.5q0 -196 -72.5 -304.5t-210.5 -119.5q77 -38 116.5 -103.5t39.5 -156.5q0 -241 -103.5 -375.5t-289.5 -134.5q-162 0 -250 86t-88 242q0 211 79 333t224 136z" />
<glyph unicode="9" d="M477 680q132 0 206.5 113.5t74.5 314.5q0 115 -58 180.5t-159 65.5q-59 0 -105.5 -24.5t-75.5 -69.5q-39 -66 -64.5 -169.5t-25.5 -203.5q0 -102 53 -154.5t154 -52.5zM678 668q-52 -46 -106 -67t-117 -21q-150 0 -234 78t-84 219q0 42 7.5 95t21.5 113q18 80 40 139.5 t48 94.5q49 67 118 99t167 32q164 0 253 -85t89 -243q0 -65 -17 -168.5t-61 -304.5q-42 -190 -69.5 -291t-53.5 -163q-43 -106 -129 -164t-201 -58q-171 0 -251.5 69t-80.5 216q0 10 1 23.5t4 42.5l124 -1q-1 -7 -1.5 -16t-0.5 -26q0 -102 47.5 -154.5t139.5 -52.5 q130 0 200 108t146 486z" />
<glyph unicode=":" horiz-adv-x="498" d="M18 0l33 154h154l-33 -154h-154zM205 874l33 154h153l-33 -154h-153z" />
<glyph unicode=";" horiz-adv-x="498" d="M205 874l33 154h153l-33 -154h-153zM-98 -201l157 369h164l-205 -369h-116z" />
<glyph unicode="&#x3c;" horiz-adv-x="1706" d="M1442 1034l-1045 -424l1045 -424v-88l-1178 482v61l1178 483v-90z" />
<glyph unicode="=" horiz-adv-x="1706" d="M1452 469v-82h-1198v82h1198zM1452 831v-79h-1198v79h1198z" />
<glyph unicode="&#x3e;" horiz-adv-x="1706" d="M1442 641v-61l-1178 -482v88l1045 424l-1045 424v90z" />
<glyph unicode="?" horiz-adv-x="758" d="M223 371l35 174q11 48 21.5 84t21.5 59q28 61 115 137q26 23 39 35q77 75 116 173.5t39 219.5q0 71 -32 107.5t-95 36.5q-80 0 -123 -50t-67 -173h-133q32 176 107.5 250.5t219.5 74.5q128 0 194.5 -60t66.5 -175q0 -111 -34 -221t-89 -181q-36 -46 -98.5 -101t-73.5 -67 q-25 -25 -42.5 -66t-35.5 -122l-29 -135h-123zM135 0l33 154h154l-33 -154h-154z" />
<glyph unicode="@" horiz-adv-x="2048" d="M1303 827l61 129h80l-137 -553q-10 -36 -15.5 -64.5t-5.5 -43.5q0 -44 30.5 -68t86.5 -24q48 0 100 19.5t103 56.5q101 74 162 207t61 282q0 273 -199.5 439.5t-525.5 166.5q-168 0 -310.5 -48t-258.5 -144q-154 -128 -232 -297t-78 -375q0 -327 221.5 -522t591.5 -195 q161 0 324 50.5t299 142.5l29 -45q-146 -110 -308.5 -165t-339.5 -55q-187 0 -343 46.5t-277 138.5q-152 115 -226.5 267.5t-74.5 348.5q0 162 50.5 307t147.5 265q144 175 345.5 265.5t449.5 90.5q160 0 304.5 -44t248.5 -124q128 -98 194 -226.5t66 -277.5 q0 -169 -63 -308t-181 -232q-67 -54 -145.5 -82.5t-159.5 -28.5q-95 0 -143.5 36.5t-48.5 108.5q0 12 3 34q1 3 1 5q-49 -88 -125 -136t-166 -48q-154 0 -233.5 83t-79.5 243q0 228 134.5 386t326.5 158q95 0 160 -43t96 -127zM1219 467l63 254q-22 99 -81.5 151t-151.5 52 q-152 0 -255.5 -138t-103.5 -340q0 -115 57.5 -180t159.5 -65q111 0 196 72.5t116 193.5z" />
<glyph unicode="A" horiz-adv-x="1069" d="M215 481h528l-63 619q-5 46 -7.5 98t-2.5 117v61q-21 -54 -49.5 -113.5t-73.5 -144.5zM-170 0l780 1475h158l154 -1475h-131l-35 377h-594l-199 -377h-133z" />
<glyph unicode="B" horiz-adv-x="1044" d="M295 823h168q115 0 180.5 14.5t106.5 47.5q51 41 82.5 123t31.5 176q0 106 -51.5 146t-202.5 40h-200zM143 109h228q208 0 293.5 94.5t85.5 322.5q0 108 -61 150.5t-222 42.5h-195zM-12 0l313 1475h348q186 0 266 -65t80 -212q0 -184 -74.5 -298t-203.5 -128 q86 -23 128 -84.5t42 -167.5q0 -118 -33.5 -223t-93.5 -174q-57 -67 -148 -95t-286 -28h-338z" />
<glyph unicode="C" horiz-adv-x="1038" d="M874 403q-35 -212 -142.5 -319t-287.5 -107q-185 0 -284 92.5t-99 266.5q0 121 82 515v1q30 142 57.5 239t53.5 150q66 136 162.5 196t249.5 60q165 0 254.5 -85t89.5 -241q0 -32 -2.5 -60t-8.5 -54h-127q5 25 7 49.5t2 50.5q0 119 -55.5 178.5t-166.5 59.5 q-99 0 -164.5 -43t-111.5 -138q-27 -55 -55.5 -157t-61.5 -264q-35 -170 -51 -278t-16 -177q0 -125 59 -187.5t178 -62.5q127 0 200 74.5t109 240.5h129z" />
<glyph unicode="D" horiz-adv-x="1120" d="M145 109h154q223 0 298 29t126 104q26 39 52 117t61 229q41 179 63.5 315t22.5 215q0 141 -70.5 193.5t-294.5 52.5h-145zM-12 0l315 1475h260q151 0 228 -12.5t122 -41.5q75 -47 109.5 -122t34.5 -191q0 -54 -10.5 -131t-42.5 -240q-34 -169 -65.5 -286.5t-61.5 -192.5 q-30 -71 -75.5 -123t-107.5 -84q-51 -27 -142.5 -39t-256.5 -12h-307z" />
<glyph unicode="E" horiz-adv-x="899" d="M-12 0l313 1475h662l-23 -105h-530l-119 -557h504l-21 -104h-506l-127 -600h547l-22 -109h-678z" />
<glyph unicode="F" horiz-adv-x="840" d="M-12 0l313 1475h625l-23 -111h-493l-117 -549h463l-23 -108h-465l-149 -707h-131z" />
<glyph unicode="G" horiz-adv-x="1108" d="M825 20q-108 -21 -195.5 -32t-152.5 -11q-206 0 -311 97.5t-105 287.5q0 63 18 175t56 292q39 179 71 282.5t64 158.5q67 114 168 169.5t242 55.5q183 0 284 -91t101 -255q0 -26 -8 -87v-5h-131q3 21 4.5 38.5t1.5 34.5q0 123 -67.5 191t-190.5 68q-103 0 -175 -48 t-122 -149q-24 -47 -50 -141t-63 -263q-41 -195 -54 -279.5t-13 -131.5q0 -137 76 -215t208 -78q63 0 120.5 7.5t111.5 23.5l114 534h-321l24 109h449l-109 -514q-10 -45 -20 -96.5t-25 -127.5z" />
<glyph unicode="H" horiz-adv-x="1133" d="M-12 0l313 1475h131l-137 -646h582l137 646h131l-314 -1475h-131l154 721h-582l-153 -721h-131z" />
<glyph unicode="I" horiz-adv-x="434" d="M-6 0l313 1475h133l-313 -1475h-133z" />
<glyph unicode="J" horiz-adv-x="895" d="M92 428q-8 -53 -12 -88t-4 -57q0 -93 50.5 -141t147.5 -48q114 0 172.5 68t102.5 272l221 1041h133l-221 -1037q-56 -267 -144.5 -360.5t-263.5 -93.5q-157 0 -243 77.5t-86 219.5q0 35 4 72t12 75h131z" />
<glyph unicode="K" horiz-adv-x="985" d="M-6 0l313 1475h131l-141 -658l643 658h160l-664 -689l389 -786h-145l-389 788l-166 -788h-131z" />
<glyph unicode="L" horiz-adv-x="782" d="M-6 0l313 1475h135l-288 -1360h499l-24 -115h-635z" />
<glyph unicode="M" horiz-adv-x="1577" d="M-12 0l313 1475h207l131 -1077q7 -54 12.5 -124t10.5 -153q28 67 60 134.5t69 137.5l577 1082h219l-313 -1475h-125l225 1063q21 99 37.5 172t32.5 135l-731 -1370h-150l-160 1366l-292 -1366h-123z" />
<glyph unicode="N" horiz-adv-x="1231" d="M-12 0l313 1475h199l280 -1164q15 -59 43 -197l4 -23q16 110 59 312l5 21l223 1051h127l-313 -1475h-205l-266 1106q-16 71 -30 140.5t-26 139.5q-6 -49 -23 -137t-69 -331l-194 -918h-127z" />
<glyph unicode="O" horiz-adv-x="1133" d="M674 1395q-107 0 -175.5 -45t-119.5 -150q-20 -40 -48 -139.5t-57 -233.5q-42 -202 -59.5 -308.5t-17.5 -158.5q0 -133 69 -206.5t195 -73.5q104 0 174.5 46t120.5 148q23 48 49 143.5t61 258.5q43 201 58.5 294t15.5 142q0 136 -69 209.5t-197 73.5zM61 354 q0 65 20.5 189.5t59.5 306.5q32 150 68 264t65 164q70 116 166.5 168.5t239.5 52.5q190 0 290.5 -98.5t100.5 -284.5q0 -61 -17.5 -169.5t-58.5 -301.5q-42 -194 -72.5 -295t-62.5 -155q-65 -113 -164.5 -166.5t-244.5 -53.5q-186 0 -288 99.5t-102 279.5z" />
<glyph unicode="P" horiz-adv-x="981" d="M289 797h164q103 0 161.5 13t96.5 42q54 43 86 137t32 213q0 91 -57 128.5t-207 37.5h-155zM-12 0l313 1475h256q227 0 317.5 -61t90.5 -206q0 -110 -27 -209.5t-76 -171.5q-50 -74 -143 -105.5t-283 -31.5h-170l-147 -690h-131z" />
<glyph unicode="Q" horiz-adv-x="1133" d="M961 0h-261q-50 0 -129.5 -11.5t-109.5 -11.5q-194 0 -297 99.5t-103 285.5q0 66 17.5 176.5t56.5 288.5q39 180 72 288.5t67 166.5q68 113 164 167t228 54q196 0 301.5 -98.5t105.5 -282.5q0 -90 -32 -269.5t-87 -379.5q-41 -149 -86.5 -232.5t-113.5 -144.5q36 9 77 14 t87 5h67zM668 1399q-98 0 -167.5 -47.5t-121.5 -149.5q-20 -39 -48.5 -139.5t-58.5 -237.5q-39 -183 -57 -294t-18 -166q0 -137 70 -209t202 -72q94 0 165 49t122 150q25 51 51.5 144.5t56.5 238.5q42 194 59 294.5t17 153.5q0 138 -70 211.5t-202 73.5z" />
<glyph unicode="R" horiz-adv-x="1014" d="M295 825h176q111 0 166.5 12t91.5 40q55 40 88 130t33 203q0 77 -50.5 117.5t-144.5 40.5h-245zM-12 0l313 1475h274q235 0 321.5 -59.5t86.5 -205.5q0 -204 -78.5 -318t-224.5 -124q77 -20 114 -73.5t37 -145.5q0 -29 -3 -61.5t-9 -67.5l-45 -253q-1 -8 -5 -28 q-13 -71 -13 -108q0 -13 0.5 -19.5t0.5 -11.5h-136q1 44 6 87.5t16 100.5l45 236q6 30 9 60.5t3 60.5q0 86 -49.5 129t-148.5 43h-232l-151 -717h-131z" />
<glyph unicode="S" horiz-adv-x="1028" d="M45 418h135q-6 -33 -9 -61.5t-3 -49.5q0 -107 64 -165t184 -58q131 0 205.5 79t74.5 218q0 117 -172 298l-20 21q-19 20 -55 57q-220 227 -220 382q0 162 108.5 260t289.5 98q172 0 263 -77.5t91 -223.5q0 -25 -2 -54.5t-6 -60.5l-129 1q3 35 4.5 61t1.5 41 q0 102 -59 155.5t-170 53.5q-120 0 -190.5 -65.5t-70.5 -176.5q0 -110 171 -289q28 -29 42 -44q13 -14 39 -41q219 -230 219 -374q0 -79 -25 -157.5t-69 -136.5q-52 -71 -129 -102.5t-196 -31.5q-178 0 -278.5 85.5t-100.5 234.5q0 23 3 53.5t9 69.5z" />
<glyph unicode="T" horiz-adv-x="877" d="M215 0l289 1364h-357l21 111h842l-27 -111h-348l-289 -1364h-131z" />
<glyph unicode="U" horiz-adv-x="1133" d="M295 1475h131l-217 -1018q-8 -43 -12 -77.5t-4 -62.5q0 -113 68 -175t192 -62q143 0 225 89.5t127 297.5l215 1008h131l-215 -1008q-57 -267 -169 -380.5t-314 -113.5q-186 0 -288 90.5t-102 255.5q0 31 4.5 67t12.5 77z" />
<glyph unicode="V" horiz-adv-x="991" d="M244 0l-84 1475h131l47 -1037q1 -34 3 -114t3 -203l37 81q67 148 80 175l538 1098h129l-722 -1475h-162z" />
<glyph unicode="W" horiz-adv-x="1669" d="M260 0l-135 1475h131l84 -979q8 -93 14.5 -187t12.5 -196q18 70 39.5 137.5t46.5 132.5l409 1092h182l80 -1045q10 -131 18 -273q2 -39 3 -46q39 127 68 214t51 144l385 1006h133l-570 -1475h-170l-88 1108q-6 79 -9 144.5t-3 131.5q-17 -63 -40.5 -133t-67.5 -186 l-406 -1065h-168z" />
<glyph unicode="X" d="M-186 0l561 784l-215 691h135l182 -611l455 611h151l-532 -705l252 -770h-139l-215 688l-486 -688h-149z" />
<glyph unicode="Y" horiz-adv-x="887" d="M213 0l127 598l-242 877h138l194 -736l504 736h145l-604 -871l-129 -604h-133z" />
<glyph unicode="Z" horiz-adv-x="901" d="M-115 0l27 127l915 1239h-622l24 109h777l-25 -115l-924 -1249h668l-23 -111h-817z" />
<glyph unicode="[" horiz-adv-x="569" d="M-6 -299l377 1774h276l-18 -86h-152l-342 -1602h154l-19 -86h-276z" />
<glyph unicode="\" horiz-adv-x="569" d="M193 1497l231 -1687h-105l-231 1687h105z" />
<glyph unicode="]" horiz-adv-x="569" d="M508 1475l-377 -1774h-276l18 84h154l340 1604h-154l18 86h277z" />
<glyph unicode="^" horiz-adv-x="2048" d="M1081 1458l541 -557h-125l-473 469l-475 -469h-125l539 557h118z" />
<glyph unicode="_" horiz-adv-x="1024" d="M1024 -403v-80h-1024v80h1024z" />
<glyph unicode="`" horiz-adv-x="1024" d="M721 1163h-90l-281 348h148z" />
<glyph unicode="a" horiz-adv-x="889" d="M606 551h-51q-229 0 -337.5 -70t-108.5 -217q0 -80 43.5 -128t115.5 -48q124 0 213.5 121.5t124.5 341.5zM520 139q-53 -75 -123.5 -112t-160.5 -37q-107 0 -180.5 73.5t-73.5 180.5q0 208 127 302.5t409 94.5q43 0 65.5 -0.5t40.5 -1.5q10 45 14.5 82t4.5 67 q0 89 -42.5 129.5t-133.5 40.5q-96 0 -152.5 -48.5t-81.5 -153.5h-122q36 152 123.5 223.5t236.5 71.5q146 0 219.5 -63t73.5 -189q0 -42 -6 -91t-19 -106l-84 -393q-11 -53 -18 -104.5t-11 -104.5h-118z" />
<glyph unicode="b" horiz-adv-x="924" d="M-41 0q23 84 42 161t34 144l250 1170h121l-117 -551q48 63 107 93t136 30q137 0 206 -72t69 -213q0 -113 -29.5 -260t-79.5 -277q-45 -119 -126.5 -181t-192.5 -62q-99 0 -165 40t-101 121l-35 -143h-119zM514 954q-68 0 -125.5 -42.5t-101.5 -125.5q-46 -86 -78.5 -230 t-32.5 -271q0 -103 48 -156t141 -53q72 0 122 41.5t91 138.5q44 106 74 248.5t30 247.5q0 97 -43.5 149.5t-124.5 52.5z" />
<glyph unicode="c" horiz-adv-x="838" d="M664 299q-34 -178 -116 -251t-247 -73q-145 0 -217 69t-72 208q0 64 11 142.5t32 170.5q28 120 53.5 201.5t49.5 122.5q51 86 125.5 124t193.5 38q133 0 205 -70.5t72 -200.5q0 -9 -1 -21.5t-4 -33.5h-118v6q4 35 4 49q0 89 -44 130.5t-138 41.5q-69 0 -118.5 -31 t-72.5 -90q-20 -48 -42 -124t-42 -166q-19 -89 -29 -163t-10 -130q0 -94 42.5 -136t135.5 -42q92 0 144.5 53.5t79.5 175.5h123z" />
<glyph unicode="d" horiz-adv-x="924" d="M309 76q69 0 126.5 42t101.5 124q46 87 78 230.5t32 270.5q0 103 -48 156t-140 53q-73 0 -122.5 -41.5t-90.5 -138.5q-45 -106 -75 -248.5t-30 -247.5q0 -97 43 -148.5t125 -51.5zM948 1475l-264 -1241q-7 -34 -26 -136q-12 -62 -20 -98h-120l21 115 q-48 -70 -107.5 -101.5t-140.5 -31.5q-135 0 -205 72.5t-70 213.5q0 112 29.5 258.5t79.5 276.5q46 120 126.5 183t190.5 63q96 0 162.5 -38.5t100.5 -113.5l120 578h123z" />
<glyph unicode="e" horiz-adv-x="901" d="M190 606h461q9 58 13 95.5t4 60.5q0 93 -48.5 142.5t-138.5 49.5q-122 0 -188.5 -78t-102.5 -270zM711 322q-31 -173 -125 -255.5t-258 -82.5q-150 0 -232 81.5t-82 231.5q0 51 14.5 139.5t41.5 204.5q18 78 43.5 143.5t54.5 110.5q53 81 130 119.5t185 38.5 q150 0 226.5 -74t76.5 -219q0 -47 -7 -110.5t-21 -145.5h-590q-15 -69 -23 -123t-8 -92q0 -103 50 -156t147 -53q103 0 162.5 57t87.5 185h127z" />
<glyph unicode="f" horiz-adv-x="498" d="M2 0l195 930h-185l21 98h184l33 154q39 187 106.5 252t212.5 65q13 0 28 -2t46 -8l-21 -96q-20 3 -37 4.5t-30 1.5q-77 0 -115.5 -42.5t-64.5 -170.5l-33 -158h205l-23 -98h-205l-196 -930h-121z" />
<glyph unicode="g" horiz-adv-x="907" d="M453 954q-67 0 -126 -53t-91 -143q-42 -117 -66.5 -240.5t-24.5 -208.5q0 -92 43.5 -142t122.5 -50q66 0 122 35.5t95 101.5q45 75 78 212t33 263q0 110 -47.5 167.5t-138.5 57.5zM532 131q-56 -54 -115.5 -79t-133.5 -25q-124 0 -191 74t-67 210q0 30 3 65t9 75 q21 138 48 241t58 164q50 97 124.5 146t172.5 49q97 0 161.5 -42t94.5 -124l37 143h119q-9 -38 -24 -98q-19 -73 -21 -86l-182 -852q-47 -220 -135 -306.5t-259 -86.5q-143 0 -221 67t-78 191q0 17 0.5 24.5t1.5 15.5h123q-2 -17 -3 -26t-1 -16q0 -77 48 -116.5t141 -39.5 q107 0 168 68.5t96 230.5z" />
<glyph unicode="h" horiz-adv-x="899" d="M-31 0l314 1475h120l-116 -551q56 64 118.5 94.5t139.5 30.5q115 0 175 -62.5t60 -183.5q0 -24 -5 -61.5t-15 -84.5l-139 -657h-121l143 680l2 9q17 87 17 114q0 73 -37.5 110t-110.5 37q-111 0 -186 -90.5t-113 -271.5l-125 -588h-121z" />
<glyph unicode="i" horiz-adv-x="383" d="M238 1323l32 152h148l-33 -152h-147zM-29 0l219 1028h121l-219 -1028h-121z" />
<glyph unicode="j" horiz-adv-x="393" d="M248 1323l33 152h147l-33 -152h-147zM-236 -276q8 0 22 -1.5t19 -1.5q67 0 97 25t45 94l254 1188h121l-265 -1233q-20 -98 -73.5 -139t-159.5 -41q-21 0 -41 1t-41 3z" />
<glyph unicode="k" horiz-adv-x="768" d="M-31 0l314 1475h120l-184 -867l420 420h158l-453 -455l270 -573h-141l-260 571l-123 -571h-121z" />
<glyph unicode="l" horiz-adv-x="383" d="M-29 0l314 1475h125l-314 -1475h-125z" />
<glyph unicode="m" horiz-adv-x="1356" d="M-33 0l170 801q14 61 24 117t18 110h114l-27 -125q53 74 115.5 110t140.5 36q94 0 148.5 -47.5t68.5 -139.5q49 92 120 139.5t159 47.5q107 0 164 -63t57 -183q0 -25 -5 -62.5t-15 -83.5l-140 -657h-121l144 680q8 40 12 70t4 53q0 72 -32.5 109.5t-94.5 37.5 q-103 0 -173.5 -90.5t-108.5 -271.5l-125 -588h-123l145 680q9 40 13 70t4 53q0 73 -33.5 110t-100.5 37q-99 0 -168.5 -90.5t-107.5 -271.5l-125 -588h-121z" />
<glyph unicode="n" horiz-adv-x="895" d="M-33 0l170 801q14 61 24 117t18 110h114l-27 -125q56 74 124.5 110t154.5 36q114 0 173.5 -63t59.5 -183q0 -24 -5 -61.5t-15 -84.5l-140 -657h-120l143 680l2 9q16 87 16 114q0 73 -37 110t-110 37q-111 0 -186 -90.5t-113 -271.5l-125 -588h-121z" />
<glyph unicode="o" horiz-adv-x="905" d="M471 956q-71 0 -121 -31.5t-88 -101.5q-17 -33 -38.5 -104t-41.5 -162q-21 -96 -32 -166.5t-11 -114.5q0 -96 50.5 -147t144.5 -51q72 0 122.5 32t86.5 101q17 32 35.5 95.5t46.5 185.5q23 106 32 166t9 100q0 96 -50.5 147t-144.5 51zM12 287q0 52 11 126t32 165 q24 107 52 190.5t51 120.5q54 85 129.5 124.5t183.5 39.5q153 0 237.5 -80.5t84.5 -227.5q0 -46 -10.5 -114t-30.5 -160q-32 -134 -57 -212t-48 -114q-52 -84 -128 -123.5t-185 -39.5q-153 0 -237.5 80t-84.5 225z" />
<glyph unicode="p" horiz-adv-x="930" d="M514 954q-68 0 -125.5 -42.5t-101.5 -125.5q-46 -86 -78.5 -230t-32.5 -271q0 -103 48 -156t141 -53q72 0 122 41.5t91 138.5q44 106 74 248.5t30 247.5q0 97 -43.5 149.5t-124.5 52.5zM-113 -389l252 1184q13 60 24.5 118.5t21.5 114.5h120l-22 -115q47 69 107.5 101.5 t141.5 32.5q136 0 205.5 -72t69.5 -213q0 -113 -29.5 -260t-79.5 -277q-45 -119 -126.5 -181t-192.5 -62q-97 0 -163.5 39t-92.5 112l-111 -522h-125z" />
<glyph unicode="q" horiz-adv-x="924" d="M457 952q-73 0 -122.5 -41.5t-90.5 -138.5q-45 -108 -75 -249.5t-30 -246.5q0 -96 43.5 -148t124.5 -52q69 0 127 42t101 124q46 90 78 233.5t32 267.5q0 103 -48 156t-140 53zM532 106q-49 -64 -107.5 -94t-135.5 -30q-136 0 -205.5 72t-69.5 214q0 112 29.5 258.5 t79.5 276.5q45 120 127 183t192 63q98 0 164.5 -41t102.5 -123l34 143h119q-24 -87 -43 -163.5t-33 -139.5l-237 -1114h-123z" />
<glyph unicode="r" horiz-adv-x="545" d="M-29 0l170 801q12 54 21.5 111.5t15.5 115.5h115l-25 -149q51 80 116 117.5t153 37.5q16 0 25 -0.5t15 -1.5l-22 -110h-25q-120 0 -199 -84.5t-114 -249.5l-125 -588h-121z" />
<glyph unicode="s" horiz-adv-x="766" d="M-33 317h117q-1 -7 -1.5 -16t-0.5 -27q0 -93 47 -144.5t133 -51.5q88 0 142.5 49t54.5 127q0 47 -24 89.5t-101 115.5l-20 18q-201 195 -201 316t78.5 192.5t211.5 71.5q134 0 205.5 -67t71.5 -193v-31v-16h-119q1 6 1.5 13t0.5 19q0 84 -41.5 130t-115.5 46 q-80 0 -127.5 -40t-47.5 -107q0 -51 28.5 -98t127.5 -138q116 -105 153.5 -168.5t37.5 -134.5q0 -134 -84.5 -212t-229.5 -78q-147 0 -223 71.5t-76 210.5q0 21 0.5 32t1.5 21z" />
<glyph unicode="t" horiz-adv-x="498" d="M315 0h-104q-84 0 -133 46.5t-49 125.5q0 19 3.5 45.5t14.5 81.5l133 631h-172l21 98h174l47 223l133 58l-59 -281h211l-23 -98h-211l-135 -645q-7 -32 -10.5 -54.5t-3.5 -33.5q0 -53 29.5 -73t115.5 -20h41z" />
<glyph unicode="u" horiz-adv-x="895" d="M535 127q-56 -74 -124.5 -109.5t-154.5 -35.5q-115 0 -175.5 62.5t-60.5 182.5q0 23 5.5 59.5t15.5 84.5l139 657h123l-145 -678q-9 -44 -13 -73.5t-4 -49.5q0 -74 37 -111.5t109 -37.5q110 0 185 90.5t114 271.5l125 588h120l-169 -801q-14 -61 -24 -117t-18 -110h-114z " />
<glyph unicode="v" horiz-adv-x="793" d="M150 0l-76 1028h121l47 -672q2 -44 3 -73t1 -54q0 -17 -1 -52t-1 -54l440 905h133l-526 -1028h-141z" />
<glyph unicode="w" horiz-adv-x="1354" d="M127 0l-64 1028h130l36 -895l416 895h164l14 -899l428 899h129l-499 -1028h-162l-21 907l-415 -907h-156z" />
<glyph unicode="x" horiz-adv-x="758" d="M-164 0l424 559l-156 469h132l81 -255l9 -30q22 -71 30 -110q44 65 56.5 83.5t17.5 24.5l207 287h145l-364 -485l182 -543h-135l-107 342q-15 49 -23 79t-11 52q-13 -24 -30.5 -51t-41.5 -60l-266 -362h-150z" />
<glyph unicode="y" horiz-adv-x="793" d="M150 -14l-76 1042h121l47 -672v-13q6 -112 6 -202l436 887h133l-723 -1417h-133z" />
<glyph unicode="z" horiz-adv-x="668" d="M-115 0l25 109l594 819h-400l23 100h532l-26 -127l-582 -797h434l-22 -104h-578z" />
<glyph unicode="{" horiz-adv-x="1024" d="M848 1389h-37q-135 0 -182 -51.5t-47 -213.5v-241q0 -175 -43 -248t-152 -105q109 -32 152 -104t43 -248v-241q0 -162 46.5 -212.5t180.5 -50.5h39v-88h-43q-189 0 -257.5 74.5t-68.5 300.5v240q0 158 -58 222t-200 64q-7 0 -21.5 -1t-23.5 -1v90q10 -1 20.5 -1.5 t28.5 -0.5q139 0 196.5 64.5t57.5 222.5v240q0 227 68.5 302t257.5 75h43v-88z" />
<glyph unicode="|" horiz-adv-x="1024" d="M557 1565v-2048h-90v2048h90z" />
<glyph unicode="}" horiz-adv-x="1024" d="M545 1100v-240q0 -158 58 -222.5t200 -64.5q7 0 21.5 1t23.5 1v-90q-9 0 -23.5 1t-21.5 1q-142 0 -200 -64t-58 -222v-240q0 -226 -68.5 -300.5t-257.5 -74.5h-43v88h39q134 0 180.5 50.5t46.5 212.5v241q0 174 43.5 247t153.5 105q-110 32 -153.5 105t-43.5 248v241 q0 162 -47 213.5t-182 51.5h-37v88h43q189 0 257.5 -75t68.5 -302z" />
<glyph unicode="~" horiz-adv-x="1706" d="M1530 647q-106 -74 -202 -110.5t-185 -36.5q-99 0 -266 61q-16 6 -22 8q-12 4 -33 12q-167 60 -257 60q-83 0 -175 -37.5t-212 -122.5v92q105 74 201 110t186 36q100 0 271 -61q12 -5 19 -7q8 -3 27 -10q168 -61 261 -61q83 0 175 37.5t212 121.5v-92z" />
<glyph unicode="&#xa0;" />
<glyph unicode="&#xa1;" horiz-adv-x="569" d="M432 1114l-225 -1114h-144l263 1114h106zM530 1475l-32 -154h-154l33 154h153z" />
<glyph unicode="&#xa2;" d="M240 135l333 835q-24 3 -37.5 4t-23.5 1q-74 0 -124.5 -30.5t-76.5 -90.5q-22 -50 -44.5 -124t-41.5 -161q-21 -98 -32 -171.5t-11 -123.5q0 -52 14 -86t44 -53zM694 750q3 25 3.5 36.5t0.5 20.5q0 48 -14.5 81t-46.5 54l-336 -837q20 -3 40 -5t34 -2q97 0 150.5 52 t80.5 174h113q-31 -174 -116.5 -249t-254.5 -75q-10 0 -28.5 2t-55.5 8l-80 -194h-75l88 217q-68 39 -98.5 97t-30.5 149q0 42 5 91.5t15 106.5q24 143 58.5 261t66.5 173q49 83 122.5 122.5t178.5 39.5q23 0 46.5 -1.5t49.5 -4.5l66 166h78l-76 -191q66 -31 98.5 -88 t32.5 -141q0 -18 -4 -58v-5h-111z" />
<glyph unicode="&#xa3;" d="M-86 0l25 115h161l127 604h-168l23 104h168l43 199q49 230 137.5 329t243.5 99q140 0 215.5 -73t75.5 -210q0 -20 -2.5 -45t-8.5 -57h-126q5 28 7.5 50.5t2.5 39.5q0 90 -44.5 138t-127.5 48q-97 0 -152.5 -71t-93.5 -252l-41 -195h301l-23 -104h-301l-129 -604h504 l-24 -115h-793z" />
<glyph unicode="&#xa4;" d="M27 809l32 78h140q24 103 49 189.5t41 119.5q63 140 146.5 198t217.5 58q146 0 222.5 -83t76.5 -239q0 -26 -2.5 -54.5t-7.5 -63.5h-127q5 31 7.5 61t2.5 57q0 109 -44 162.5t-134 53.5q-86 0 -138 -38t-95 -139q-18 -38 -38 -106t-46 -176h446l-33 -78h-430 q-10 -48 -28 -146l-4 -22h389l-35 -78h-369q-13 -73 -18.5 -128t-5.5 -99q0 -134 45.5 -194t144.5 -60q110 0 173.5 75.5t94.5 243.5h129q-35 -212 -132.5 -319t-256.5 -107q-169 0 -250 87.5t-81 271.5q0 48 6 104t18 125h-153l34 78h133q5 24 17 80t18 88h-155z" />
<glyph unicode="&#xa5;" horiz-adv-x="1042" d="M1143 1427l-344 -475h245l-16 -78h-287l-151 -210h393l-16 -78h-430l-125 -586h-127l125 586h-402l17 78h362l-61 210h-256l16 78h217l-133 475h131l195 -716l510 716h137z" />
<glyph unicode="&#xa6;" horiz-adv-x="1024" d="M557 408v-758h-90v758h90zM557 1432v-758h-90v758h90z" />
<glyph unicode="&#xa7;" d="M442 588q128 52 172.5 90t44.5 88q0 36 -27.5 76t-109.5 114q-128 -44 -180.5 -85.5t-52.5 -94.5q0 -32 37.5 -78t115.5 -110zM20 39l23 104q84 -28 149 -41.5t113 -13.5q108 0 173 44.5t65 117.5q0 89 -143 216l-15 13q-145 128 -185 186.5t-40 114.5q0 75 68 133 t221 111q-71 66 -103.5 123t-32.5 115q0 98 85.5 162.5t222.5 64.5q61 0 124 -11t127 -32l-20 -100q-73 20 -129 30t-96 10q-86 0 -133.5 -31.5t-47.5 -88.5q0 -35 20.5 -71t76.5 -93q29 -31 84 -84q159 -155 159 -254q0 -79 -60.5 -135.5t-205.5 -110.5q85 -74 119.5 -133 t34.5 -125q0 -133 -95 -203.5t-274 -70.5q-61 0 -128.5 12.5t-156.5 40.5z" />
<glyph unicode="&#xa8;" horiz-adv-x="1024" d="M698 1241l35 162h141l-34 -162h-142zM377 1241l35 162h141l-35 -162h-141z" />
<glyph unicode="&#xa9;" horiz-adv-x="1706" d="M1081 918q-20 81 -79.5 126.5t-147.5 45.5q-126 0 -196 -97.5t-70 -273.5q0 -169 71.5 -267t194.5 -98q91 0 156 52.5t84 140.5h102q-11 -123 -108 -201t-240 -78q-173 0 -275 123.5t-102 333.5q0 205 107 328t282 123q132 0 222.5 -72t103.5 -186h-105zM1511 721 q0 133 -49 252.5t-141 212.5q-95 95 -215 144.5t-254 49.5q-133 0 -251.5 -49t-209.5 -141q-95 -97 -145.5 -218t-50.5 -251t50 -249.5t144 -213.5t213.5 -144.5t249.5 -50.5t251.5 51t217.5 146q93 92 141.5 209.5t48.5 251.5zM852 1452q149 0 282.5 -55t237.5 -160 q103 -102 157 -235t54 -281q0 -150 -53.5 -280t-157.5 -232q-107 -106 -241.5 -162.5t-278.5 -56.5q-145 0 -277 55.5t-237 161.5q-105 104 -160 236t-55 278q0 145 56 279t161 241q101 103 232 157t280 54z" />
<glyph unicode="&#xaa;" horiz-adv-x="668" d="M455 1139h-39q-172 0 -253 -49t-81 -152q0 -56 32.5 -89.5t86.5 -33.5q93 0 160 85t94 239zM391 852q-41 -53 -93.5 -78.5t-121.5 -25.5q-80 0 -135 51t-55 125q0 145 95.5 211.5t307.5 66.5q32 0 48.5 -0.5t31.5 -1.5q8 45 11 67.5t3 39.5q0 60 -32.5 89t-100.5 29 q-71 0 -113 -34.5t-61 -108.5h-92q28 107 93 157t177 50q109 0 164 -44.5t55 -131.5q0 -30 -4.5 -64t-13.5 -73l-63 -277q-9 -39 -14.5 -75.5t-6.5 -69.5h-90z" />
<glyph unicode="&#xab;" horiz-adv-x="758" d="M723 911l-238 -385l72 -409h-102l-97 426l254 368h111zM416 911l-240 -385l74 -409h-103l-98 426l254 368h113z" />
<glyph unicode="&#xac;" horiz-adv-x="1706" d="M1452 856v-502h-78v420h-1120v82h1198z" />
<glyph unicode="&#xad;" horiz-adv-x="569" d="M10 457l25 114h422l-23 -114h-424z" />
<glyph unicode="&#xae;" horiz-adv-x="1706" d="M852 1077h-168v-313h168q145 0 199.5 36t54.5 126q0 78 -61.5 114.5t-192.5 36.5zM874 1155q180 0 264.5 -56.5t84.5 -176.5q0 -89 -55.5 -149t-147.5 -71l190 -393h-131l-182 377h-213v-377h-115v846h305zM1511 721q0 133 -49 252.5t-141 212.5q-95 95 -215 144.5 t-254 49.5q-133 0 -251.5 -49t-209.5 -141q-95 -97 -145.5 -218t-50.5 -251t50 -249.5t144 -213.5t213.5 -144.5t249.5 -50.5t251.5 51t217.5 146q93 92 141.5 209.5t48.5 251.5zM852 1452q149 0 282.5 -55t237.5 -160q103 -102 157 -235t54 -281q0 -150 -53.5 -280 t-157.5 -232q-107 -106 -241.5 -162.5t-278.5 -56.5q-145 0 -277 55.5t-237 161.5q-105 104 -160 236t-55 278q0 145 56 279t161 241q101 103 232 157t280 54z" />
<glyph unicode="&#xaf;" horiz-adv-x="1024" d="M377 1264l22 116h475l-22 -116h-475z" />
<glyph unicode="&#xb0;" horiz-adv-x="674" d="M551 1176q0 87 -63 150t-150 63q-89 0 -151 -62t-62 -151t62.5 -151t150.5 -62t150.5 62t62.5 151zM338 1450q112 0 192 -80.5t80 -193.5q0 -114 -80 -193.5t-194 -79.5q-115 0 -194 79t-79 194q0 114 80.5 194t194.5 80z" />
<glyph unicode="&#xb1;" horiz-adv-x="1706" d="M1452 141v-82h-1198v82h1198zM893 1161v-354h559v-80h-559v-352h-80v352h-559v80h559v354h80z" />
<glyph unicode="&#xb2;" horiz-adv-x="621" d="M-37 571l17 78l305 291q129 124 175 192.5t46 127.5q0 53 -37 84.5t-98 31.5q-69 0 -113 -38t-54 -105h-83q18 104 81 156.5t169 52.5q102 0 161.5 -49.5t59.5 -135.5q0 -76 -58 -162t-217 -233l-239 -223h387l-16 -68h-486z" />
<glyph unicode="&#xb3;" horiz-adv-x="621" d="M4 786h86q0 -1 -1 -5q-3 -19 -3 -27q0 -61 36.5 -94t102.5 -33q42 0 70.5 11.5t52.5 39.5q25 30 43.5 84t18.5 102q0 66 -41.5 94.5t-137.5 28.5h-6l15 66q4 -1 11 -1q36 -3 50 -3q96 0 146.5 56t50.5 163q0 50 -33.5 78t-93.5 28q-67 0 -107 -35t-51 -102h-86 q15 99 77 152t163 53q100 0 155.5 -45t55.5 -127q0 -116 -51 -185t-144 -79q58 -21 85.5 -56t27.5 -88q0 -50 -16.5 -104t-45.5 -101t-83.5 -73.5t-125.5 -26.5q-104 0 -163.5 50.5t-59.5 137.5q0 17 0.5 25.5t1.5 15.5z" />
<glyph unicode="&#xb4;" horiz-adv-x="1024" d="M565 1163h-92l246 348h145z" />
<glyph unicode="&#xb5;" horiz-adv-x="1094" d="M326 1063l-123 -590q-9 -43 -13 -77t-4 -64q0 -126 60 -192t174 -66q127 0 219.5 109t136.5 313l125 567h121l-166 -786q-2 -9 -5 -24q-20 -92 -20 -112q0 -31 17.5 -47t50.5 -16q9 0 18.5 0.5t20.5 1.5l-18 -96q-3 -1 -8 -2q-49 -11 -68 -11q-68 0 -100.5 31.5 t-32.5 95.5q0 7 0.5 16t3.5 29q-43 -83 -123.5 -127.5t-188.5 -44.5q-97 0 -169.5 45.5t-104.5 126.5l-119 -567h-121l316 1487h121z" />
<glyph unicode="&#xb6;" horiz-adv-x="1024" d="M932 1415h-129v-1415h-70v1415h-192v-1415h-70v782q-175 8 -278 102.5t-103 245.5q0 157 108.5 253t286.5 96h447v-64z" />
<glyph unicode="&#xb7;" horiz-adv-x="469" d="M137 713q0 38 27 65t65 27q40 0 65 -26t25 -66q0 -41 -25 -66.5t-65 -25.5q-38 0 -65 26.5t-27 65.5z" />
<glyph unicode="&#xb8;" horiz-adv-x="1024" d="M63 -416l29 78q67 -19 120 -29t91 -10q68 0 104.5 29t36.5 82q0 47 -39 67.5t-131 20.5h-30l59 178h66l-37 -111h20q100 0 152.5 -39.5t52.5 -115.5q0 -92 -62.5 -143.5t-175.5 -51.5q-54 0 -117 11t-139 34z" />
<glyph unicode="&#xb9;" horiz-adv-x="621" d="M186 571l174 742q-36 -28 -83 -53.5t-115 -53.5l20 78q66 31 118 67t91 76h80l-201 -856h-84z" />
<glyph unicode="&#xba;" horiz-adv-x="680" d="M354 1423q-53 0 -91 -22.5t-66 -71.5q-13 -19 -29 -69t-31 -117q-16 -64 -24.5 -114t-8.5 -81q0 -68 37.5 -103.5t108.5 -35.5q55 0 93 22.5t65 70.5q13 22 27 67t34 129q17 74 24 116t7 70q0 67 -38 103t-108 36zM10 954q0 39 8 91t23 112q19 75 40 133.5t38 85.5 q40 60 97 87.5t138 27.5q115 0 177.5 -56.5t62.5 -158.5q0 -34 -7.5 -81.5t-23.5 -111.5q-23 -93 -41.5 -147.5t-36.5 -79.5q-38 -59 -94.5 -87t-140.5 -28q-115 0 -177.5 56t-62.5 157z" />
<glyph unicode="&#xbb;" horiz-adv-x="758" d="M238 117l237 387l-72 407h103l96 -424l-254 -370h-110zM-70 117l238 387l-74 407h105l96 -424l-254 -370h-111z" />
<glyph unicode="&#xbc;" horiz-adv-x="1528" d="M1012 258h262l78 330q2 7 18 65t31 107h-4q-17 -25 -32 -47.5t-28 -38.5zM1204 0l49 199h-325l18 73l412 527h117l-129 -541h106l-14 -59h-107l-47 -199h-80zM1274 1450l-922 -1475h-102l924 1475h100zM178 629l164 692q-37 -28 -83.5 -53t-104.5 -47l18 73 q60 26 110 59.5t93 73.5h74l-191 -798h-80z" />
<glyph unicode="&#xbd;" horiz-adv-x="1528" d="M897 0l18 72l291 272q121 111 166 177t45 122q0 50 -35 79.5t-94 29.5q-66 0 -108 -35.5t-50 -98.5h-81q16 97 76 145t163 48q98 0 154.5 -45.5t56.5 -124.5q0 -72 -56.5 -153t-205.5 -216l-229 -209h370l-16 -63h-465zM1274 1450l-922 -1475h-102l924 1475h100zM178 629 l164 692q-37 -28 -83.5 -53t-104.5 -47l18 73q60 26 110 59.5t93 73.5h74l-191 -798h-80z" />
<glyph unicode="&#xbe;" horiz-adv-x="1526" d="M1012 258h262l78 330q2 7 18 65t31 107h-4q-17 -25 -32 -47.5t-28 -38.5zM1204 0l49 199h-325l18 73l412 527h117l-129 -541h106l-14 -59h-107l-47 -199h-80zM1274 1450l-922 -1475h-102l924 1475h100zM4 829h82q0 -1 -1 -6q-3 -17 -3 -24q0 -57 35 -88t98 -31 q39 0 66.5 11.5t50.5 37.5q24 30 41.5 80t17.5 94q0 61 -39.5 88t-130.5 27h-6l15 59q12 -1 24 -1.5t33 -0.5q91 0 139.5 52t48.5 151q0 47 -32 73.5t-89 26.5q-62 0 -101 -32.5t-50 -94.5h-82q15 92 74 140.5t155 48.5t149.5 -42t53.5 -118q0 -106 -49.5 -171t-138.5 -75 q56 -20 82 -52t26 -81q0 -46 -15.5 -97t-43.5 -95q-28 -45 -80 -70t-119 -25q-99 0 -156 47.5t-57 131.5q0 13 0.5 21t1.5 15z" />
<glyph unicode="&#xbf;" horiz-adv-x="758" d="M565 1106l-37 -174q-13 -61 -22 -93t-19 -53q-28 -61 -114 -136q-27 -24 -39 -36q-78 -74 -117 -173t-39 -220q0 -71 31 -106t94 -35q81 0 125 49.5t68 171.5h131q-33 -177 -108 -251.5t-218 -74.5q-127 0 -193.5 60.5t-66.5 175.5q0 110 34 220t89 181q36 47 98 101.5 t74 66.5q25 25 42.5 66t35.5 123l28 137h123zM653 1475l-32 -154h-154l33 154h153z" />
<glyph unicode="&#xc0;" horiz-adv-x="1069" d="M215 481h528l-63 619q-5 46 -7.5 98t-2.5 117v61q-21 -54 -49.5 -113.5t-73.5 -144.5zM-170 0l780 1475h158l154 -1475h-131l-35 377h-594l-199 -377h-133zM830 1609h-90l-281 348h148z" />
<glyph unicode="&#xc1;" horiz-adv-x="1069" d="M215 481h528l-63 619q-5 46 -7.5 98t-2.5 117v61q-21 -54 -49.5 -113.5t-73.5 -144.5zM-170 0l780 1475h158l154 -1475h-131l-35 377h-594l-199 -377h-133zM674 1609h-92l246 348h145z" />
<glyph unicode="&#xc2;" horiz-adv-x="1069" d="M215 481h528l-63 619q-5 46 -7.5 98t-2.5 117v61q-21 -54 -49.5 -113.5t-73.5 -144.5zM-170 0l780 1475h158l154 -1475h-131l-35 377h-594l-199 -377h-133zM983 1609h-79l-148 248l-233 -248h-92l266 348h133z" />
<glyph unicode="&#xc3;" horiz-adv-x="1069" d="M215 481h528l-63 619q-5 46 -7.5 98t-2.5 117v61q-21 -54 -49.5 -113.5t-73.5 -144.5zM-170 0l780 1475h158l154 -1475h-131l-35 377h-594l-199 -377h-133zM551 1660h-80q35 102 74.5 143.5t100.5 41.5q15 0 28.5 -2t24.5 -6l86 -27q23 -8 33.5 -10t19.5 -2 q27 0 47.5 18.5t32.5 52.5h80q-35 -101 -74.5 -142.5t-99.5 -41.5q-16 0 -29.5 2t-23.5 6l-87 29q-15 5 -28 7.5t-25 2.5q-26 0 -47 -18.5t-33 -53.5z" />
<glyph unicode="&#xc4;" horiz-adv-x="1069" d="M215 481h528l-63 619q-5 46 -7.5 98t-2.5 117v61q-21 -54 -49.5 -113.5t-73.5 -144.5zM-170 0l780 1475h158l154 -1475h-131l-35 377h-594l-199 -377h-133zM807 1687l35 162h141l-34 -162h-142zM486 1687l35 162h141l-35 -162h-141z" />
<glyph unicode="&#xc5;" horiz-adv-x="1069" d="M565 1747q0 -58 42.5 -99.5t101.5 -41.5q60 0 100.5 40.5t40.5 100.5t-41 101.5t-100 41.5q-60 0 -102 -41.5t-42 -101.5zM487 1747q0 92 64.5 156.5t157.5 64.5q92 0 156.5 -64.5t64.5 -156.5t-64.5 -155.5t-156.5 -63.5q-93 0 -157.5 63.5t-64.5 155.5zM215 481h528 l-63 619q-5 46 -7.5 98t-2.5 117v61q-21 -54 -49.5 -113.5t-73.5 -144.5zM-170 0l780 1475h158l154 -1475h-131l-35 377h-594l-199 -377h-133z" />
<glyph unicode="&#xc6;" horiz-adv-x="1479" d="M254 481h467l92 889h-27zM670 0l37 377h-517l-225 -377h-141l903 1475h817l-22 -105h-582l-59 -557h495l-22 -104h-484l-63 -600h461l-23 -109h-575z" />
<glyph unicode="&#xc7;" horiz-adv-x="1038" d="M874 403q-35 -212 -142.5 -319t-287.5 -107q-185 0 -284 92.5t-99 266.5q0 121 82 515v1q30 142 57.5 239t53.5 150q66 136 162.5 196t249.5 60q165 0 254.5 -85t89.5 -241q0 -32 -2.5 -60t-8.5 -54h-127q5 25 7 49.5t2 50.5q0 119 -55.5 178.5t-166.5 59.5 q-99 0 -164.5 -43t-111.5 -138q-27 -55 -55.5 -157t-61.5 -264q-35 -170 -51 -278t-16 -177q0 -125 59 -187.5t178 -62.5q127 0 200 74.5t109 240.5h129zM106 -416l29 78q67 -19 120 -29t91 -10q68 0 104.5 29t36.5 82q0 47 -39 67.5t-131 20.5h-30l59 178h66l-37 -111h20 q100 0 152.5 -39.5t52.5 -115.5q0 -92 -62.5 -143.5t-175.5 -51.5q-54 0 -117 11t-139 34z" />
<glyph unicode="&#xc8;" horiz-adv-x="899" d="M-12 0l313 1475h662l-23 -105h-530l-119 -557h504l-21 -104h-506l-127 -600h547l-22 -109h-678zM746 1609h-90l-281 348h148z" />
<glyph unicode="&#xc9;" horiz-adv-x="899" d="M-12 0l313 1475h662l-23 -105h-530l-119 -557h504l-21 -104h-506l-127 -600h547l-22 -109h-678zM590 1609h-92l246 348h145z" />
<glyph unicode="&#xca;" horiz-adv-x="899" d="M-12 0l313 1475h662l-23 -105h-530l-119 -557h504l-21 -104h-506l-127 -600h547l-22 -109h-678zM899 1609h-79l-148 248l-233 -248h-92l266 348h133z" />
<glyph unicode="&#xcb;" horiz-adv-x="899" d="M-12 0l313 1475h662l-23 -105h-530l-119 -557h504l-21 -104h-506l-127 -600h547l-22 -109h-678zM723 1687l35 162h141l-34 -162h-142zM402 1687l35 162h141l-35 -162h-141z" />
<glyph unicode="&#xcc;" horiz-adv-x="434" d="M-6 0l313 1475h133l-313 -1475h-133zM512 1609h-90l-281 348h148z" />
<glyph unicode="&#xcd;" horiz-adv-x="434" d="M-6 0l313 1475h133l-313 -1475h-133zM356 1609h-92l246 348h145z" />
<glyph unicode="&#xce;" horiz-adv-x="434" d="M-6 0l313 1475h133l-313 -1475h-133zM665 1609h-79l-148 248l-233 -248h-92l266 348h133z" />
<glyph unicode="&#xcf;" horiz-adv-x="434" d="M-6 0l313 1475h133l-313 -1475h-133zM489 1687l35 162h141l-34 -162h-142zM168 1687l35 162h141l-35 -162h-141z" />
<glyph unicode="&#xd0;" horiz-adv-x="1130" d="M156 109h151q223 0 298.5 29t125.5 104q28 41 55 122.5t60 223.5q42 179 64 315t22 215q0 141 -71 193.5t-296 52.5h-143l-115 -545h275l-21 -94h-274zM-2 0l154 725h-148l19 94h149l139 656h262q151 0 228 -12.5t123 -41.5q74 -47 108.5 -122t34.5 -191 q0 -54 -10.5 -131t-42.5 -240q-34 -169 -65 -286.5t-62 -192.5q-29 -70 -75.5 -122t-109.5 -85q-51 -27 -142.5 -39t-256.5 -12h-305z" />
<glyph unicode="&#xd1;" horiz-adv-x="1231" d="M-12 0l313 1475h199l280 -1164q15 -59 43 -197l4 -23q16 110 59 312l5 21l223 1051h127l-313 -1475h-205l-266 1106q-16 71 -30 140.5t-26 139.5q-6 -49 -23 -137t-69 -331l-194 -918h-127zM653 1660h-80q35 102 74.5 143.5t100.5 41.5q15 0 28.5 -2t24.5 -6l86 -27 q23 -8 33.5 -10t19.5 -2q27 0 47.5 18.5t32.5 52.5h80q-35 -101 -74.5 -142.5t-99.5 -41.5q-16 0 -29.5 2t-23.5 6l-87 29q-15 5 -28 7.5t-25 2.5q-26 0 -47 -18.5t-33 -53.5z" />
<glyph unicode="&#xd2;" horiz-adv-x="1133" d="M674 1395q-107 0 -175.5 -45t-119.5 -150q-20 -40 -48 -139.5t-57 -233.5q-42 -202 -59.5 -308.5t-17.5 -158.5q0 -133 69 -206.5t195 -73.5q104 0 174.5 46t120.5 148q23 48 49 143.5t61 258.5q43 201 58.5 294t15.5 142q0 136 -69 209.5t-197 73.5zM61 354 q0 65 20.5 189.5t59.5 306.5q32 150 68 264t65 164q70 116 166.5 168.5t239.5 52.5q190 0 290.5 -98.5t100.5 -284.5q0 -61 -17.5 -169.5t-58.5 -301.5q-42 -194 -72.5 -295t-62.5 -155q-65 -113 -164.5 -166.5t-244.5 -53.5q-186 0 -288 99.5t-102 279.5zM862 1609h-90 l-281 348h148z" />
<glyph unicode="&#xd3;" horiz-adv-x="1133" d="M674 1395q-107 0 -175.5 -45t-119.5 -150q-20 -40 -48 -139.5t-57 -233.5q-42 -202 -59.5 -308.5t-17.5 -158.5q0 -133 69 -206.5t195 -73.5q104 0 174.5 46t120.5 148q23 48 49 143.5t61 258.5q43 201 58.5 294t15.5 142q0 136 -69 209.5t-197 73.5zM61 354 q0 65 20.5 189.5t59.5 306.5q32 150 68 264t65 164q70 116 166.5 168.5t239.5 52.5q190 0 290.5 -98.5t100.5 -284.5q0 -61 -17.5 -169.5t-58.5 -301.5q-42 -194 -72.5 -295t-62.5 -155q-65 -113 -164.5 -166.5t-244.5 -53.5q-186 0 -288 99.5t-102 279.5zM706 1609h-92 l246 348h145z" />
<glyph unicode="&#xd4;" horiz-adv-x="1133" d="M674 1395q-107 0 -175.5 -45t-119.5 -150q-20 -40 -48 -139.5t-57 -233.5q-42 -202 -59.5 -308.5t-17.5 -158.5q0 -133 69 -206.5t195 -73.5q104 0 174.5 46t120.5 148q23 48 49 143.5t61 258.5q43 201 58.5 294t15.5 142q0 136 -69 209.5t-197 73.5zM61 354 q0 65 20.5 189.5t59.5 306.5q32 150 68 264t65 164q70 116 166.5 168.5t239.5 52.5q190 0 290.5 -98.5t100.5 -284.5q0 -61 -17.5 -169.5t-58.5 -301.5q-42 -194 -72.5 -295t-62.5 -155q-65 -113 -164.5 -166.5t-244.5 -53.5q-186 0 -288 99.5t-102 279.5zM1015 1609h-79 l-148 248l-233 -248h-92l266 348h133z" />
<glyph unicode="&#xd5;" horiz-adv-x="1133" d="M674 1395q-107 0 -175.5 -45t-119.5 -150q-20 -40 -48 -139.5t-57 -233.5q-42 -202 -59.5 -308.5t-17.5 -158.5q0 -133 69 -206.5t195 -73.5q104 0 174.5 46t120.5 148q23 48 49 143.5t61 258.5q43 201 58.5 294t15.5 142q0 136 -69 209.5t-197 73.5zM61 354 q0 65 20.5 189.5t59.5 306.5q32 150 68 264t65 164q70 116 166.5 168.5t239.5 52.5q190 0 290.5 -98.5t100.5 -284.5q0 -61 -17.5 -169.5t-58.5 -301.5q-42 -194 -72.5 -295t-62.5 -155q-65 -113 -164.5 -166.5t-244.5 -53.5q-186 0 -288 99.5t-102 279.5zM583 1660h-80 q35 102 74.5 143.5t100.5 41.5q15 0 28.5 -2t24.5 -6l86 -27q23 -8 33.5 -10t19.5 -2q27 0 47.5 18.5t32.5 52.5h80q-35 -101 -74.5 -142.5t-99.5 -41.5q-16 0 -29.5 2t-23.5 6l-87 29q-15 5 -28 7.5t-25 2.5q-26 0 -47 -18.5t-33 -53.5z" />
<glyph unicode="&#xd6;" horiz-adv-x="1133" d="M674 1395q-107 0 -175.5 -45t-119.5 -150q-20 -40 -48 -139.5t-57 -233.5q-42 -202 -59.5 -308.5t-17.5 -158.5q0 -133 69 -206.5t195 -73.5q104 0 174.5 46t120.5 148q23 48 49 143.5t61 258.5q43 201 58.5 294t15.5 142q0 136 -69 209.5t-197 73.5zM61 354 q0 65 20.5 189.5t59.5 306.5q32 150 68 264t65 164q70 116 166.5 168.5t239.5 52.5q190 0 290.5 -98.5t100.5 -284.5q0 -61 -17.5 -169.5t-58.5 -301.5q-42 -194 -72.5 -295t-62.5 -155q-65 -113 -164.5 -166.5t-244.5 -53.5q-186 0 -288 99.5t-102 279.5zM839 1687l35 162 h141l-34 -162h-142zM518 1687l35 162h141l-35 -162h-141z" />
<glyph unicode="&#xd7;" horiz-adv-x="1706" d="M854 668l487 487l58 -57l-488 -488l488 -487l-58 -57l-487 487l-487 -487l-58 57l488 487l-488 488l58 57z" />
<glyph unicode="&#xd8;" horiz-adv-x="1133" d="M940 1161l-719 -936q28 -68 90.5 -104.5t149.5 -36.5q121 0 201.5 67t123.5 203q69 219 109 428.5t45 378.5zM197 328l718 929q-27 68 -90.5 105t-152.5 37q-125 0 -201.5 -65.5t-122.5 -211.5q-24 -76 -52.5 -197.5t-72.5 -338.5q-16 -77 -22 -127.5t-6 -91.5 q0 -7 1 -20t1 -19zM-76 -29l166 215q-13 44 -20 88.5t-7 92.5q0 69 17 179.5t51 262.5q44 199 77 308.5t66 164.5q68 115 164.5 168t239.5 53q109 0 190 -33t133 -100l127 168l66 -45l-152 -199q15 -44 22 -89.5t7 -90.5q0 -62 -17 -170t-53 -274q-41 -193 -74.5 -303 t-66.5 -166q-66 -114 -166.5 -167.5t-244.5 -53.5q-103 0 -183 33.5t-133 99.5l-141 -187z" />
<glyph unicode="&#xd9;" horiz-adv-x="1133" d="M295 1475h131l-217 -1018q-8 -43 -12 -77.5t-4 -62.5q0 -113 68 -175t192 -62q143 0 225 89.5t127 297.5l215 1008h131l-215 -1008q-57 -267 -169 -380.5t-314 -113.5q-186 0 -288 90.5t-102 255.5q0 31 4.5 67t12.5 77zM848 1609h-90l-281 348h148z" />
<glyph unicode="&#xda;" horiz-adv-x="1133" d="M295 1475h131l-217 -1018q-8 -43 -12 -77.5t-4 -62.5q0 -113 68 -175t192 -62q143 0 225 89.5t127 297.5l215 1008h131l-215 -1008q-57 -267 -169 -380.5t-314 -113.5q-186 0 -288 90.5t-102 255.5q0 31 4.5 67t12.5 77zM692 1609h-92l246 348h145z" />
<glyph unicode="&#xdb;" horiz-adv-x="1133" d="M295 1475h131l-217 -1018q-8 -43 -12 -77.5t-4 -62.5q0 -113 68 -175t192 -62q143 0 225 89.5t127 297.5l215 1008h131l-215 -1008q-57 -267 -169 -380.5t-314 -113.5q-186 0 -288 90.5t-102 255.5q0 31 4.5 67t12.5 77zM1001 1609h-79l-148 248l-233 -248h-92l266 348 h133z" />
<glyph unicode="&#xdc;" horiz-adv-x="1133" d="M295 1475h131l-217 -1018q-8 -43 -12 -77.5t-4 -62.5q0 -113 68 -175t192 -62q143 0 225 89.5t127 297.5l215 1008h131l-215 -1008q-57 -267 -169 -380.5t-314 -113.5q-186 0 -288 90.5t-102 255.5q0 31 4.5 67t12.5 77zM825 1687l35 162h141l-34 -162h-142zM504 1687 l35 162h141l-35 -162h-141z" />
<glyph unicode="&#xdd;" horiz-adv-x="887" d="M213 0l127 598l-242 877h138l194 -736l504 736h145l-604 -871l-129 -604h-133zM583 1609h-92l246 348h145z" />
<glyph unicode="&#xde;" horiz-adv-x="981" d="M227 508h164q108 0 165 12.5t93 40.5q55 43 87 137t32 213q0 92 -58 130t-206 38h-156zM-12 0l313 1475h131l-61 -289h125q225 0 316 -61t91 -205q0 -111 -26.5 -210.5t-75.5 -170.5q-51 -75 -143.5 -106.5t-282.5 -31.5h-170l-86 -401h-131z" />
<glyph unicode="&#xdf;" horiz-adv-x="1006" d="M-29 0l222 1042q50 242 148.5 349.5t266.5 107.5q139 0 220 -61t81 -164q0 -54 -27 -105t-124 -155q-12 -13 -35 -37q-113 -115 -113 -174q0 -44 50 -114q18 -25 26 -38q9 -13 25 -38q120 -182 120 -302q0 -151 -83.5 -238t-231.5 -87q-127 0 -190.5 59t-63.5 178 q0 28 1 42.5t3 27.5h121q-3 -17 -4.5 -32t-1.5 -30q0 -71 35.5 -109t101.5 -38q86 0 137.5 61t51.5 164q0 92 -94 230l-21 30q-68 102 -89.5 150t-21.5 86q0 46 26 91t118 134q98 96 129.5 146t31.5 96q0 59 -49.5 94t-134.5 35q-118 0 -184.5 -93t-126.5 -374l-199 -934 h-121z" />
<glyph unicode="&#xe0;" horiz-adv-x="889" d="M606 551h-51q-229 0 -337.5 -70t-108.5 -217q0 -80 43.5 -128t115.5 -48q124 0 213.5 121.5t124.5 341.5zM520 139q-53 -75 -123.5 -112t-160.5 -37q-107 0 -180.5 73.5t-73.5 180.5q0 208 127 302.5t409 94.5q43 0 65.5 -0.5t40.5 -1.5q10 45 14.5 82t4.5 67 q0 89 -42.5 129.5t-133.5 40.5q-96 0 -152.5 -48.5t-81.5 -153.5h-122q36 152 123.5 223.5t236.5 71.5q146 0 219.5 -63t73.5 -189q0 -42 -6 -91t-19 -106l-84 -393q-11 -53 -18 -104.5t-11 -104.5h-118zM637 1163h-90l-281 348h148z" />
<glyph unicode="&#xe1;" horiz-adv-x="889" d="M606 551h-51q-229 0 -337.5 -70t-108.5 -217q0 -80 43.5 -128t115.5 -48q124 0 213.5 121.5t124.5 341.5zM520 139q-53 -75 -123.5 -112t-160.5 -37q-107 0 -180.5 73.5t-73.5 180.5q0 208 127 302.5t409 94.5q43 0 65.5 -0.5t40.5 -1.5q10 45 14.5 82t4.5 67 q0 89 -42.5 129.5t-133.5 40.5q-96 0 -152.5 -48.5t-81.5 -153.5h-122q36 152 123.5 223.5t236.5 71.5q146 0 219.5 -63t73.5 -189q0 -42 -6 -91t-19 -106l-84 -393q-11 -53 -18 -104.5t-11 -104.5h-118zM481 1163h-92l246 348h145z" />
<glyph unicode="&#xe2;" horiz-adv-x="889" d="M606 551h-51q-229 0 -337.5 -70t-108.5 -217q0 -80 43.5 -128t115.5 -48q124 0 213.5 121.5t124.5 341.5zM520 139q-53 -75 -123.5 -112t-160.5 -37q-107 0 -180.5 73.5t-73.5 180.5q0 208 127 302.5t409 94.5q43 0 65.5 -0.5t40.5 -1.5q10 45 14.5 82t4.5 67 q0 89 -42.5 129.5t-133.5 40.5q-96 0 -152.5 -48.5t-81.5 -153.5h-122q36 152 123.5 223.5t236.5 71.5q146 0 219.5 -63t73.5 -189q0 -42 -6 -91t-19 -106l-84 -393q-11 -53 -18 -104.5t-11 -104.5h-118zM790 1163h-79l-148 248l-233 -248h-92l266 348h133z" />
<glyph unicode="&#xe3;" horiz-adv-x="889" d="M606 551h-51q-229 0 -337.5 -70t-108.5 -217q0 -80 43.5 -128t115.5 -48q124 0 213.5 121.5t124.5 341.5zM520 139q-53 -75 -123.5 -112t-160.5 -37q-107 0 -180.5 73.5t-73.5 180.5q0 208 127 302.5t409 94.5q43 0 65.5 -0.5t40.5 -1.5q10 45 14.5 82t4.5 67 q0 89 -42.5 129.5t-133.5 40.5q-96 0 -152.5 -48.5t-81.5 -153.5h-122q36 152 123.5 223.5t236.5 71.5q146 0 219.5 -63t73.5 -189q0 -42 -6 -91t-19 -106l-84 -393q-11 -53 -18 -104.5t-11 -104.5h-118zM358 1214h-80q35 102 74.5 143.5t100.5 41.5q15 0 28.5 -2t24.5 -6 l86 -27q23 -8 33.5 -10t19.5 -2q27 0 47.5 18.5t32.5 52.5h80q-35 -101 -74.5 -142.5t-99.5 -41.5q-16 0 -29.5 2t-23.5 6l-87 29q-15 5 -28 7.5t-25 2.5q-26 0 -47 -18.5t-33 -53.5z" />
<glyph unicode="&#xe4;" horiz-adv-x="889" d="M606 551h-51q-229 0 -337.5 -70t-108.5 -217q0 -80 43.5 -128t115.5 -48q124 0 213.5 121.5t124.5 341.5zM520 139q-53 -75 -123.5 -112t-160.5 -37q-107 0 -180.5 73.5t-73.5 180.5q0 208 127 302.5t409 94.5q43 0 65.5 -0.5t40.5 -1.5q10 45 14.5 82t4.5 67 q0 89 -42.5 129.5t-133.5 40.5q-96 0 -152.5 -48.5t-81.5 -153.5h-122q36 152 123.5 223.5t236.5 71.5q146 0 219.5 -63t73.5 -189q0 -42 -6 -91t-19 -106l-84 -393q-11 -53 -18 -104.5t-11 -104.5h-118zM614 1241l35 162h141l-34 -162h-142zM293 1241l35 162h141l-35 -162 h-141z" />
<glyph unicode="&#xe5;" horiz-adv-x="889" d="M399 1358q0 -65 45 -109.5t111 -44.5q65 0 110.5 45t45.5 109q0 65 -45.5 110t-110.5 45q-66 0 -111 -44.5t-45 -110.5zM313 1360q0 101 70 170t172 69t172 -69t70 -170q0 -102 -70.5 -172t-171.5 -70t-171.5 70t-70.5 172zM606 551h-51q-229 0 -337.5 -70t-108.5 -217 q0 -80 43.5 -128t115.5 -48q124 0 213.5 121.5t124.5 341.5zM520 139q-53 -75 -123.5 -112t-160.5 -37q-107 0 -180.5 73.5t-73.5 180.5q0 208 127 302.5t409 94.5q43 0 65.5 -0.5t40.5 -1.5q10 45 14.5 82t4.5 67q0 89 -42.5 129.5t-133.5 40.5q-96 0 -152.5 -48.5 t-81.5 -153.5h-122q36 152 123.5 223.5t236.5 71.5q146 0 219.5 -63t73.5 -189q0 -42 -6 -91t-19 -106l-84 -393q-11 -53 -18 -104.5t-11 -104.5h-118z" />
<glyph unicode="&#xe6;" horiz-adv-x="1452" d="M588 168q-71 -96 -151 -140t-181 -44q-123 0 -198.5 70.5t-75.5 183.5q0 200 111.5 289t363.5 89h166q12 62 18 107t6 74q0 82 -44.5 123t-135.5 41q-95 0 -151 -49.5t-83 -155.5h-122q39 160 126.5 228.5t254.5 68.5q97 0 157 -34t90 -106q56 72 127.5 106t165.5 34 q152 0 229.5 -74.5t77.5 -218.5q0 -42 -6.5 -101t-19.5 -141h-592q-17 -82 -24 -135.5t-7 -91.5q0 -105 49 -158t146 -53q104 0 164 57.5t88 184.5h127q-31 -173 -125 -255.5t-258 -82.5q-116 0 -188.5 45.5t-104.5 138.5zM600 518h-131q-183 0 -271.5 -63.5t-88.5 -194.5 q0 -83 44 -131.5t119 -48.5q129 0 210 108t118 330zM743 616l461 1q9 56 13 90t4 55q0 93 -48.5 142.5t-138.5 49.5q-122 0 -189.5 -78t-101.5 -260z" />
<glyph unicode="&#xe7;" horiz-adv-x="838" d="M664 299q-34 -178 -116 -251t-247 -73q-145 0 -217 69t-72 208q0 64 11 142.5t32 170.5q28 120 53.5 201.5t49.5 122.5q51 86 125.5 124t193.5 38q133 0 205 -70.5t72 -200.5q0 -9 -1 -21.5t-4 -33.5h-118v6q4 35 4 49q0 89 -44 130.5t-138 41.5q-69 0 -118.5 -31 t-72.5 -90q-20 -48 -42 -124t-42 -166q-19 -89 -29 -163t-10 -130q0 -94 42.5 -136t135.5 -42q92 0 144.5 53.5t79.5 175.5h123zM10 -416l29 78q67 -19 120 -29t91 -10q68 0 104.5 29t36.5 82q0 47 -39 67.5t-131 20.5h-30l59 178h66l-37 -111h20q100 0 152.5 -39.5 t52.5 -115.5q0 -92 -62.5 -143.5t-175.5 -51.5q-54 0 -117 11t-139 34z" />
<glyph unicode="&#xe8;" horiz-adv-x="901" d="M190 606h461q9 58 13 95.5t4 60.5q0 93 -48.5 142.5t-138.5 49.5q-122 0 -188.5 -78t-102.5 -270zM711 322q-31 -173 -125 -255.5t-258 -82.5q-150 0 -232 81.5t-82 231.5q0 51 14.5 139.5t41.5 204.5q18 78 43.5 143.5t54.5 110.5q53 81 130 119.5t185 38.5 q150 0 226.5 -74t76.5 -219q0 -47 -7 -110.5t-21 -145.5h-590q-15 -69 -23 -123t-8 -92q0 -103 50 -156t147 -53q103 0 162.5 57t87.5 185h127zM623 1163h-90l-281 348h148z" />
<glyph unicode="&#xe9;" horiz-adv-x="901" d="M190 606h461q9 58 13 95.5t4 60.5q0 93 -48.5 142.5t-138.5 49.5q-122 0 -188.5 -78t-102.5 -270zM711 322q-31 -173 -125 -255.5t-258 -82.5q-150 0 -232 81.5t-82 231.5q0 51 14.5 139.5t41.5 204.5q18 78 43.5 143.5t54.5 110.5q53 81 130 119.5t185 38.5 q150 0 226.5 -74t76.5 -219q0 -47 -7 -110.5t-21 -145.5h-590q-15 -69 -23 -123t-8 -92q0 -103 50 -156t147 -53q103 0 162.5 57t87.5 185h127zM467 1163h-92l246 348h145z" />
<glyph unicode="&#xea;" horiz-adv-x="901" d="M190 606h461q9 58 13 95.5t4 60.5q0 93 -48.5 142.5t-138.5 49.5q-122 0 -188.5 -78t-102.5 -270zM711 322q-31 -173 -125 -255.5t-258 -82.5q-150 0 -232 81.5t-82 231.5q0 51 14.5 139.5t41.5 204.5q18 78 43.5 143.5t54.5 110.5q53 81 130 119.5t185 38.5 q150 0 226.5 -74t76.5 -219q0 -47 -7 -110.5t-21 -145.5h-590q-15 -69 -23 -123t-8 -92q0 -103 50 -156t147 -53q103 0 162.5 57t87.5 185h127zM776 1163h-79l-148 248l-233 -248h-92l266 348h133z" />
<glyph unicode="&#xeb;" horiz-adv-x="901" d="M190 606h461q9 58 13 95.5t4 60.5q0 93 -48.5 142.5t-138.5 49.5q-122 0 -188.5 -78t-102.5 -270zM711 322q-31 -173 -125 -255.5t-258 -82.5q-150 0 -232 81.5t-82 231.5q0 51 14.5 139.5t41.5 204.5q18 78 43.5 143.5t54.5 110.5q53 81 130 119.5t185 38.5 q150 0 226.5 -74t76.5 -219q0 -47 -7 -110.5t-21 -145.5h-590q-15 -69 -23 -123t-8 -92q0 -103 50 -156t147 -53q103 0 162.5 57t87.5 185h127zM600 1241l35 162h141l-34 -162h-142zM279 1241l35 162h141l-35 -162h-141z" />
<glyph unicode="&#xec;" horiz-adv-x="383" d="M-29 0l219 1028h121l-219 -1028h-121zM402 1163h-90l-281 348h148z" />
<glyph unicode="&#xed;" horiz-adv-x="383" d="M-29 0l219 1028h121l-219 -1028h-121zM246 1163h-92l246 348h145z" />
<glyph unicode="&#xee;" horiz-adv-x="383" d="M-29 0l219 1028h121l-219 -1028h-121zM555 1163h-79l-148 248l-233 -248h-92l266 348h133z" />
<glyph unicode="&#xef;" horiz-adv-x="383" d="M-29 0l219 1028h121l-219 -1028h-121zM379 1241l35 162h141l-34 -162h-142zM58 1241l35 162h141l-35 -162h-141z" />
<glyph unicode="&#xf0;" horiz-adv-x="844" d="M594 936q-11 63 -28.5 120t-41.5 109l-264 -92l-27 80l242 82q-27 43 -69.5 86.5t-106.5 95.5l61 68q60 -39 115.5 -92t106.5 -119l221 78l31 -82l-205 -70q45 -93 67.5 -203.5t22.5 -238.5q0 -132 -28 -284t-77 -288q-38 -104 -116 -157.5t-193 -53.5q-138 0 -212.5 76 t-74.5 217q0 47 8.5 109t24.5 137q29 128 52.5 205t43.5 112q46 80 115 118t166 38q53 0 93.5 -12.5t72.5 -38.5zM426 889q-60 0 -102 -30t-74 -95q-14 -30 -33 -96.5t-37 -151.5q-17 -82 -26 -148t-9 -108q0 -90 43 -137t123 -47q61 0 104 30t74 95q15 31 32 94t38 164 q16 78 24.5 140t8.5 106q0 90 -42.5 137t-123.5 47z" />
<glyph unicode="&#xf1;" horiz-adv-x="895" d="M-33 0l170 801q14 61 24 117t18 110h114l-27 -125q56 74 124.5 110t154.5 36q114 0 173.5 -63t59.5 -183q0 -24 -5 -61.5t-15 -84.5l-140 -657h-120l143 680l2 9q16 87 16 114q0 73 -37 110t-110 37q-111 0 -186 -90.5t-113 -271.5l-125 -588h-121zM354 1214h-80 q35 102 74.5 143.5t100.5 41.5q15 0 28.5 -2t24.5 -6l86 -27q23 -8 33.5 -10t19.5 -2q27 0 47.5 18.5t32.5 52.5h80q-35 -101 -74.5 -142.5t-99.5 -41.5q-16 0 -29.5 2t-23.5 6l-87 29q-15 5 -28 7.5t-25 2.5q-26 0 -47 -18.5t-33 -53.5z" />
<glyph unicode="&#xf2;" horiz-adv-x="905" d="M471 956q-71 0 -121 -31.5t-88 -101.5q-17 -33 -38.5 -104t-41.5 -162q-21 -96 -32 -166.5t-11 -114.5q0 -96 50.5 -147t144.5 -51q72 0 122.5 32t86.5 101q17 32 35.5 95.5t46.5 185.5q23 106 32 166t9 100q0 96 -50.5 147t-144.5 51zM12 287q0 52 11 126t32 165 q24 107 52 190.5t51 120.5q54 85 129.5 124.5t183.5 39.5q153 0 237.5 -80.5t84.5 -227.5q0 -46 -10.5 -114t-30.5 -160q-32 -134 -57 -212t-48 -114q-52 -84 -128 -123.5t-185 -39.5q-153 0 -237.5 80t-84.5 225zM643 1163h-90l-281 348h148z" />
<glyph unicode="&#xf3;" horiz-adv-x="905" d="M471 956q-71 0 -121 -31.5t-88 -101.5q-17 -33 -38.5 -104t-41.5 -162q-21 -96 -32 -166.5t-11 -114.5q0 -96 50.5 -147t144.5 -51q72 0 122.5 32t86.5 101q17 32 35.5 95.5t46.5 185.5q23 106 32 166t9 100q0 96 -50.5 147t-144.5 51zM12 287q0 52 11 126t32 165 q24 107 52 190.5t51 120.5q54 85 129.5 124.5t183.5 39.5q153 0 237.5 -80.5t84.5 -227.5q0 -46 -10.5 -114t-30.5 -160q-32 -134 -57 -212t-48 -114q-52 -84 -128 -123.5t-185 -39.5q-153 0 -237.5 80t-84.5 225zM487 1163h-92l246 348h145z" />
<glyph unicode="&#xf4;" horiz-adv-x="905" d="M471 956q-71 0 -121 -31.5t-88 -101.5q-17 -33 -38.5 -104t-41.5 -162q-21 -96 -32 -166.5t-11 -114.5q0 -96 50.5 -147t144.5 -51q72 0 122.5 32t86.5 101q17 32 35.5 95.5t46.5 185.5q23 106 32 166t9 100q0 96 -50.5 147t-144.5 51zM12 287q0 52 11 126t32 165 q24 107 52 190.5t51 120.5q54 85 129.5 124.5t183.5 39.5q153 0 237.5 -80.5t84.5 -227.5q0 -46 -10.5 -114t-30.5 -160q-32 -134 -57 -212t-48 -114q-52 -84 -128 -123.5t-185 -39.5q-153 0 -237.5 80t-84.5 225zM796 1163h-79l-148 248l-233 -248h-92l266 348h133z" />
<glyph unicode="&#xf5;" horiz-adv-x="905" d="M471 956q-71 0 -121 -31.5t-88 -101.5q-17 -33 -38.5 -104t-41.5 -162q-21 -96 -32 -166.5t-11 -114.5q0 -96 50.5 -147t144.5 -51q72 0 122.5 32t86.5 101q17 32 35.5 95.5t46.5 185.5q23 106 32 166t9 100q0 96 -50.5 147t-144.5 51zM12 287q0 52 11 126t32 165 q24 107 52 190.5t51 120.5q54 85 129.5 124.5t183.5 39.5q153 0 237.5 -80.5t84.5 -227.5q0 -46 -10.5 -114t-30.5 -160q-32 -134 -57 -212t-48 -114q-52 -84 -128 -123.5t-185 -39.5q-153 0 -237.5 80t-84.5 225zM364 1214h-80q35 102 74.5 143.5t100.5 41.5q15 0 28.5 -2 t24.5 -6l86 -27q23 -8 33.5 -10t19.5 -2q27 0 47.5 18.5t32.5 52.5h80q-35 -101 -74.5 -142.5t-99.5 -41.5q-16 0 -29.5 2t-23.5 6l-87 29q-15 5 -28 7.5t-25 2.5q-26 0 -47 -18.5t-33 -53.5z" />
<glyph unicode="&#xf6;" horiz-adv-x="905" d="M471 956q-71 0 -121 -31.5t-88 -101.5q-17 -33 -38.5 -104t-41.5 -162q-21 -96 -32 -166.5t-11 -114.5q0 -96 50.5 -147t144.5 -51q72 0 122.5 32t86.5 101q17 32 35.5 95.5t46.5 185.5q23 106 32 166t9 100q0 96 -50.5 147t-144.5 51zM12 287q0 52 11 126t32 165 q24 107 52 190.5t51 120.5q54 85 129.5 124.5t183.5 39.5q153 0 237.5 -80.5t84.5 -227.5q0 -46 -10.5 -114t-30.5 -160q-32 -134 -57 -212t-48 -114q-52 -84 -128 -123.5t-185 -39.5q-153 0 -237.5 80t-84.5 225zM620 1241l35 162h141l-34 -162h-142zM299 1241l35 162h141 l-35 -162h-141z" />
<glyph unicode="&#xf7;" horiz-adv-x="1706" d="M854 365q41 0 69.5 -29.5t28.5 -71.5q0 -40 -28.5 -69t-69.5 -29t-69.5 28.5t-28.5 69.5t29 71t69 30zM1452 651v-82h-1198v82h1198zM854 1055q41 0 69.5 -28.5t28.5 -70.5q0 -40 -28.5 -70t-69.5 -30t-69.5 29.5t-28.5 70.5t28.5 70t69.5 29z" />
<glyph unicode="&#xf8;" horiz-adv-x="905" d="M663 792l-491 -645q28 -35 69 -52t99 -17q74 0 125 31.5t88 101.5q17 31 38.5 103.5t51.5 201.5q15 65 23 118t8 91q0 13 -2.5 29.5t-8.5 37.5zM143 231l494 650q-30 38 -72 56.5t-100 18.5q-75 0 -126.5 -32t-86.5 -101q-18 -33 -38 -100t-48 -191q-15 -67 -23 -122.5 t-8 -90.5q0 -21 2 -42.5t6 -45.5zM-66 -41l121 158q-18 45 -27.5 92t-9.5 94q0 50 8.5 113.5t24.5 138.5q30 131 56 213.5t51 120.5q52 84 128.5 124t186.5 40q77 0 133 -19.5t101 -60.5l96 127l59 -43l-108 -144q18 -41 27.5 -84.5t9.5 -89.5q0 -48 -9.5 -113.5 t-27.5 -146.5q-31 -129 -57.5 -212t-49.5 -122q-51 -84 -127 -123.5t-188 -39.5q-74 0 -129 18t-101 57l-110 -143z" />
<glyph unicode="&#xf9;" horiz-adv-x="895" d="M535 127q-56 -74 -124.5 -109.5t-154.5 -35.5q-115 0 -175.5 62.5t-60.5 182.5q0 23 5.5 59.5t15.5 84.5l139 657h123l-145 -678q-9 -44 -13 -73.5t-4 -49.5q0 -74 37 -111.5t109 -37.5q110 0 185 90.5t114 271.5l125 588h120l-169 -801q-14 -61 -24 -117t-18 -110h-114z M651 1163h-90l-281 348h148z" />
<glyph unicode="&#xfa;" horiz-adv-x="895" d="M535 127q-56 -74 -124.5 -109.5t-154.5 -35.5q-115 0 -175.5 62.5t-60.5 182.5q0 23 5.5 59.5t15.5 84.5l139 657h123l-145 -678q-9 -44 -13 -73.5t-4 -49.5q0 -74 37 -111.5t109 -37.5q110 0 185 90.5t114 271.5l125 588h120l-169 -801q-14 -61 -24 -117t-18 -110h-114z M495 1163h-92l246 348h145z" />
<glyph unicode="&#xfb;" horiz-adv-x="895" d="M535 127q-56 -74 -124.5 -109.5t-154.5 -35.5q-115 0 -175.5 62.5t-60.5 182.5q0 23 5.5 59.5t15.5 84.5l139 657h123l-145 -678q-9 -44 -13 -73.5t-4 -49.5q0 -74 37 -111.5t109 -37.5q110 0 185 90.5t114 271.5l125 588h120l-169 -801q-14 -61 -24 -117t-18 -110h-114z M804 1163h-79l-148 248l-233 -248h-92l266 348h133z" />
<glyph unicode="&#xfc;" horiz-adv-x="895" d="M535 127q-56 -74 -124.5 -109.5t-154.5 -35.5q-115 0 -175.5 62.5t-60.5 182.5q0 23 5.5 59.5t15.5 84.5l139 657h123l-145 -678q-9 -44 -13 -73.5t-4 -49.5q0 -74 37 -111.5t109 -37.5q110 0 185 90.5t114 271.5l125 588h120l-169 -801q-14 -61 -24 -117t-18 -110h-114z M628 1241l35 162h141l-34 -162h-142zM307 1241l35 162h141l-35 -162h-141z" />
<glyph unicode="&#xfd;" horiz-adv-x="793" d="M150 -14l-76 1042h121l47 -672v-13q6 -112 6 -202l436 887h133l-723 -1417h-133zM450 1163h-92l246 348h145z" />
<glyph unicode="&#xfe;" horiz-adv-x="930" d="M514 954q-68 0 -125.5 -42.5t-101.5 -125.5q-46 -86 -78.5 -230t-32.5 -271q0 -103 48 -156t141 -53q72 0 122 41.5t91 138.5q44 107 74 250t30 246q0 99 -43 150.5t-125 51.5zM-113 -389l398 1864h125l-119 -555q44 65 102.5 96t138.5 31q136 0 205.5 -72t69.5 -213 q0 -47 -11 -122t-32 -177q-23 -106 -48.5 -185t-51.5 -124q-53 -89 -124.5 -130.5t-168.5 -41.5q-91 0 -157.5 40.5t-90.5 110.5l-111 -522h-125z" />
<glyph unicode="&#xff;" horiz-adv-x="793" d="M150 -14l-76 1042h121l47 -672v-13q6 -112 6 -202l436 887h133l-723 -1417h-133zM583 1241l35 162h141l-34 -162h-142zM262 1241l35 162h141l-35 -162h-141z" />
<glyph unicode="&#x106;" horiz-adv-x="1038" d="M874 403q-35 -212 -142.5 -319t-287.5 -107q-185 0 -284 92.5t-99 266.5q0 121 82 515v1q30 142 57.5 239t53.5 150q66 136 162.5 196t249.5 60q165 0 254.5 -85t89.5 -241q0 -32 -2.5 -60t-8.5 -54h-127q5 25 7 49.5t2 50.5q0 119 -55.5 178.5t-166.5 59.5 q-99 0 -164.5 -43t-111.5 -138q-27 -55 -55.5 -157t-61.5 -264q-35 -170 -51 -278t-16 -177q0 -125 59 -187.5t178 -62.5q127 0 200 74.5t109 240.5h129zM649 1609h-92l246 348h145z" />
<glyph unicode="&#x107;" horiz-adv-x="838" d="M664 299q-34 -178 -116 -251t-247 -73q-145 0 -217 69t-72 208q0 64 11 142.5t32 170.5q28 120 53.5 201.5t49.5 122.5q51 86 125.5 124t193.5 38q133 0 205 -70.5t72 -200.5q0 -9 -1 -21.5t-4 -33.5h-118v6q4 35 4 49q0 89 -44 130.5t-138 41.5q-69 0 -118.5 -31 t-72.5 -90q-20 -48 -42 -124t-42 -166q-19 -89 -29 -163t-10 -130q0 -94 42.5 -136t135.5 -42q92 0 144.5 53.5t79.5 175.5h123zM456 1163h-92l246 348h145z" />
<glyph unicode="&#x10c;" horiz-adv-x="1038" d="M874 403q-35 -212 -142.5 -319t-287.5 -107q-185 0 -284 92.5t-99 266.5q0 121 82 515v1q30 142 57.5 239t53.5 150q66 136 162.5 196t249.5 60q165 0 254.5 -85t89.5 -241q0 -32 -2.5 -60t-8.5 -54h-127q5 25 7 49.5t2 50.5q0 119 -55.5 178.5t-166.5 59.5 q-99 0 -164.5 -43t-111.5 -138q-27 -55 -55.5 -157t-61.5 -264q-35 -170 -51 -278t-16 -177q0 -125 59 -187.5t178 -62.5q127 0 200 74.5t109 240.5h129zM457 1957h80l147 -247l234 247h92l-267 -348h-133z" />
<glyph unicode="&#x10d;" horiz-adv-x="838" d="M664 299q-34 -178 -116 -251t-247 -73q-145 0 -217 69t-72 208q0 64 11 142.5t32 170.5q28 120 53.5 201.5t49.5 122.5q51 86 125.5 124t193.5 38q133 0 205 -70.5t72 -200.5q0 -9 -1 -21.5t-4 -33.5h-118v6q4 35 4 49q0 89 -44 130.5t-138 41.5q-69 0 -118.5 -31 t-72.5 -90q-20 -48 -42 -124t-42 -166q-19 -89 -29 -163t-10 -130q0 -94 42.5 -136t135.5 -42q92 0 144.5 53.5t79.5 175.5h123zM264 1511h80l147 -247l234 247h92l-267 -348h-133z" />
<glyph unicode="&#x111;" horiz-adv-x="934" d="M309 76q73 0 135 50t103 142q44 101 72 234t28 241q0 103 -48 156t-140 53q-78 0 -131 -49.5t-95 -163.5q-41 -113 -66.5 -244t-25.5 -219q0 -97 43.5 -148.5t124.5 -51.5zM948 1475l-41 -195h129l-16 -72h-127l-209 -975q-8 -37 -17.5 -87t-27.5 -146h-121l21 115 q-49 -70 -107.5 -101.5t-140.5 -31.5q-135 0 -205 72.5t-70 213.5q0 50 11 127.5t30 169.5q20 87 41.5 158t42.5 117q49 103 125 156t176 53q96 0 162.5 -38.5t100.5 -113.5l63 311h-270l16 72h270l41 195h123z" />
<glyph unicode="&#x11e;" horiz-adv-x="1108" d="M825 20q-108 -21 -195.5 -32t-152.5 -11q-206 0 -311 97.5t-105 287.5q0 63 18 175t56 292q39 179 71 282.5t64 158.5q67 114 168 169.5t242 55.5q183 0 284 -91t101 -255q0 -26 -8 -87v-5h-131q3 21 4.5 38.5t1.5 34.5q0 123 -67.5 191t-190.5 68q-103 0 -175 -48 t-122 -149q-24 -47 -50 -141t-63 -263q-41 -195 -54 -279.5t-13 -131.5q0 -137 76 -215t208 -78q63 0 120.5 7.5t111.5 23.5l114 534h-321l24 109h449l-109 -514q-10 -45 -20 -96.5t-25 -127.5zM528 1918l82 1v-17q0 -67 35 -101t105 -34q75 0 129.5 38.5t83.5 113.5h84 q-37 -135 -114 -202t-194 -67q-103 0 -158 58t-55 165q0 18 0.5 27t1.5 18z" />
<glyph unicode="&#x11f;" horiz-adv-x="907" d="M453 954q-67 0 -126 -53t-91 -143q-42 -117 -66.5 -240.5t-24.5 -208.5q0 -92 43.5 -142t122.5 -50q66 0 122 35.5t95 101.5q45 75 78 212t33 263q0 110 -47.5 167.5t-138.5 57.5zM532 131q-56 -54 -115.5 -79t-133.5 -25q-124 0 -191 74t-67 210q0 30 3 65t9 75 q21 138 48 241t58 164q50 97 124.5 146t172.5 49q97 0 161.5 -42t94.5 -124l37 143h119q-9 -38 -24 -98q-19 -73 -21 -86l-182 -852q-47 -220 -135 -306.5t-259 -86.5q-143 0 -221 67t-78 191q0 17 0.5 24.5t1.5 15.5h123q-2 -17 -3 -26t-1 -16q0 -77 48 -116.5t141 -39.5 q107 0 168 68.5t96 230.5zM342 1472l82 1v-17q0 -67 35 -101t105 -34q75 0 129.5 38.5t83.5 113.5h84q-37 -135 -114 -202t-194 -67q-103 0 -158 58t-55 165q0 18 0.5 27t1.5 18z" />
<glyph unicode="&#x130;" horiz-adv-x="434" d="M-6 0l313 1475h133l-313 -1475h-133zM323 1681l37 172h150l-37 -172h-150z" />
<glyph unicode="&#x131;" horiz-adv-x="383" d="M-29 0l219 1028h121l-219 -1028h-121z" />
<glyph unicode="&#x141;" horiz-adv-x="793" d="M4 0l133 635l-184 -129l29 129l182 129l153 711h136l-131 -623l294 207l-30 -133l-293 -205l-131 -606h500l-23 -115h-635z" />
<glyph unicode="&#x142;" horiz-adv-x="403" d="M-18 0l135 651l-158 -108l23 100l157 111l156 721h123l-135 -637l149 106l-20 -106l-154 -107l-154 -731h-122z" />
<glyph unicode="&#x152;" horiz-adv-x="1565" d="M946 1370q-65 7 -126 10.5t-118 3.5q-128 0 -201 -42.5t-124 -147.5q-23 -47 -49.5 -142t-61.5 -257q-36 -165 -52.5 -269.5t-16.5 -160.5q0 -142 68.5 -205.5t221.5 -63.5q28 0 75.5 3t115.5 10zM748 0q-36 0 -133 -5t-158 -5q-198 0 -297 92.5t-99 277.5q0 61 17 166.5 t55 282.5q47 213 77.5 312t61.5 151q68 115 173 166t278 51q81 0 188 -7t133 -7h584l-22 -105h-531l-119 -557h504l-20 -104h-506l-127 -600h547l-23 -109h-583z" />
<glyph unicode="&#x153;" horiz-adv-x="1485" d="M774 606h461l2 14q16 111 16 142q0 93 -48 142.5t-138 49.5q-123 0 -190 -78.5t-103 -269.5zM471 956q-71 0 -121 -31.5t-88 -101.5q-17 -33 -38.5 -104t-41.5 -162q-21 -96 -32 -166.5t-11 -114.5q0 -96 50.5 -147t144.5 -51q72 0 122.5 32t86.5 101q17 32 35.5 95.5 t46.5 185.5q23 106 32 166t9 100q0 96 -50.5 147t-144.5 51zM633 131q-54 -77 -126 -113t-171 -36q-155 0 -239.5 79.5t-84.5 227.5q0 45 10 112t31 160q32 137 57 214.5t48 113.5q53 86 129 125t188 39q110 0 177.5 -37.5t105.5 -118.5q53 80 128 118t183 38 q149 0 226 -74.5t77 -218.5q0 -43 -7 -103t-24 -153h-589q-15 -71 -22 -122.5t-7 -90.5q0 -106 48.5 -158.5t146.5 -52.5q104 0 164 57.5t87 184.5h125q-29 -170 -122.5 -254t-253.5 -84q-107 0 -176.5 36t-108.5 111z" />
<glyph unicode="&#x15e;" horiz-adv-x="1028" d="M45 418h135q-6 -33 -9 -61.5t-3 -49.5q0 -107 64 -165t184 -58q131 0 205.5 79t74.5 218q0 117 -172 298l-20 21q-19 20 -55 57q-220 227 -220 382q0 162 108.5 260t289.5 98q172 0 263 -77.5t91 -223.5q0 -25 -2 -54.5t-6 -60.5l-129 1q3 35 4.5 61t1.5 41 q0 102 -59 155.5t-170 53.5q-120 0 -190.5 -65.5t-70.5 -176.5q0 -110 171 -289q28 -29 42 -44q13 -14 39 -41q219 -230 219 -374q0 -79 -25 -157.5t-69 -136.5q-52 -71 -129 -102.5t-196 -31.5q-178 0 -278.5 85.5t-100.5 234.5q0 23 3 53.5t9 69.5zM65 -416l29 78 q67 -19 120 -29t91 -10q68 0 104.5 29t36.5 82q0 47 -39 67.5t-131 20.5h-30l59 178h66l-37 -111h20q100 0 152.5 -39.5t52.5 -115.5q0 -92 -62.5 -143.5t-175.5 -51.5q-54 0 -117 11t-139 34z" />
<glyph unicode="&#x15f;" horiz-adv-x="766" d="M-33 317h117q-1 -7 -1.5 -16t-0.5 -27q0 -93 47 -144.5t133 -51.5q88 0 142.5 49t54.5 127q0 47 -24 89.5t-101 115.5l-20 18q-201 195 -201 316t78.5 192.5t211.5 71.5q134 0 205.5 -67t71.5 -193v-31v-16h-119q1 6 1.5 13t0.5 19q0 84 -41.5 130t-115.5 46 q-80 0 -127.5 -40t-47.5 -107q0 -51 28.5 -98t127.5 -138q116 -105 153.5 -168.5t37.5 -134.5q0 -134 -84.5 -212t-229.5 -78q-147 0 -223 71.5t-76 210.5q0 21 0.5 32t1.5 21zM-66 -416l29 78q67 -19 120 -29t91 -10q68 0 104.5 29t36.5 82q0 47 -39 67.5t-131 20.5h-30 l59 178h66l-37 -111h20q100 0 152.5 -39.5t52.5 -115.5q0 -92 -62.5 -143.5t-175.5 -51.5q-54 0 -117 11t-139 34z" />
<glyph unicode="&#x160;" horiz-adv-x="1028" d="M45 418h135q-6 -33 -9 -61.5t-3 -49.5q0 -107 64 -165t184 -58q131 0 205.5 79t74.5 218q0 117 -172 298l-20 21q-19 20 -55 57q-220 227 -220 382q0 162 108.5 260t289.5 98q172 0 263 -77.5t91 -223.5q0 -25 -2 -54.5t-6 -60.5l-129 1q3 35 4.5 61t1.5 41 q0 102 -59 155.5t-170 53.5q-120 0 -190.5 -65.5t-70.5 -176.5q0 -110 171 -289q28 -29 42 -44q13 -14 39 -41q219 -230 219 -374q0 -79 -25 -157.5t-69 -136.5q-52 -71 -129 -102.5t-196 -31.5q-178 0 -278.5 85.5t-100.5 234.5q0 23 3 53.5t9 69.5zM461 1957h80l147 -247 l234 247h92l-267 -348h-133z" />
<glyph unicode="&#x161;" horiz-adv-x="766" d="M-33 317h117q-1 -7 -1.5 -16t-0.5 -27q0 -93 47 -144.5t133 -51.5q88 0 142.5 49t54.5 127q0 47 -24 89.5t-101 115.5l-20 18q-201 195 -201 316t78.5 192.5t211.5 71.5q134 0 205.5 -67t71.5 -193v-31v-16h-119q1 6 1.5 13t0.5 19q0 84 -41.5 130t-115.5 46 q-80 0 -127.5 -40t-47.5 -107q0 -51 28.5 -98t127.5 -138q116 -105 153.5 -168.5t37.5 -134.5q0 -134 -84.5 -212t-229.5 -78q-147 0 -223 71.5t-76 210.5q0 21 0.5 32t1.5 21zM244 1511h80l147 -247l234 247h92l-267 -348h-133z" />
<glyph unicode="&#x178;" horiz-adv-x="887" d="M213 0l127 598l-242 877h138l194 -736l504 736h145l-604 -871l-129 -604h-133zM716 1687l35 162h141l-34 -162h-142zM395 1687l35 162h141l-35 -162h-141z" />
<glyph unicode="&#x17d;" horiz-adv-x="901" d="M-115 0l27 127l915 1239h-622l24 109h777l-25 -115l-924 -1249h668l-23 -111h-817zM398 1957h80l147 -247l234 247h92l-267 -348h-133z" />
<glyph unicode="&#x17e;" horiz-adv-x="668" d="M-115 0l25 109l594 819h-400l23 100h532l-26 -127l-582 -797h434l-22 -104h-578zM195 1511h80l147 -247l234 247h92l-267 -348h-133z" />
<glyph unicode="&#x192;" d="M442 966q7 31 19 88q52 248 108 316q32 41 82 60.5t123 19.5q12 0 51 -2q20 -1 33 -2l-20 -98q-8 1 -16 1.5t-23 0.5q-153 0 -219 -311q-7 -33 -11 -50l-34 -162h192l-22 -100h-193l-135 -624l-4 -17q-100 -469 -328 -469q-13 0 -56 3q-16 1 -24 1l23 100q8 -1 15.5 -1.5 t23.5 -0.5q145 0 209 303q8 37 12 56l143 649h-190l20 100h191z" />
<glyph unicode="&#x2c6;" horiz-adv-x="1024" d="M874 1163h-79l-148 248l-233 -248h-92l266 348h133z" />
<glyph unicode="&#x2c7;" horiz-adv-x="1024" d="M373 1511h80l147 -247l234 247h92l-267 -348h-133z" />
<glyph unicode="&#x2d8;" horiz-adv-x="1024" d="M399 1472l82 1v-17q0 -67 35 -101t105 -34q75 0 129.5 38.5t83.5 113.5h84q-37 -135 -114 -202t-194 -67q-103 0 -158 58t-55 165q0 18 0.5 27t1.5 18z" />
<glyph unicode="&#x2d9;" horiz-adv-x="1024" d="M532 1235l37 172h150l-37 -172h-150z" />
<glyph unicode="&#x2da;" horiz-adv-x="1024" d="M487 1384q0 -65 45.5 -110t110.5 -45q64 0 109 45.5t45 109.5q0 66 -44.5 111t-109.5 45q-66 0 -111 -45t-45 -111zM401 1384q0 102 69.5 172t170.5 70t171.5 -70t70.5 -172q0 -101 -70 -170t-172 -69q-101 0 -170.5 69t-69.5 170z" />
<glyph unicode="&#x2db;" horiz-adv-x="1024" d="M403 0q-71 -62 -107 -121.5t-36 -114.5q0 -46 24.5 -66t84.5 -20h88l-23 -104h-63q-107 0 -159 40t-52 122q0 60 46.5 127t137.5 137h59z" />
<glyph unicode="&#x2dc;" horiz-adv-x="1024" d="M442 1214h-80q35 102 74.5 143.5t100.5 41.5q15 0 28.5 -2t24.5 -6l86 -27q23 -8 33.5 -10t19.5 -2q27 0 47.5 18.5t32.5 52.5h80q-35 -101 -74.5 -142.5t-99.5 -41.5q-16 0 -29.5 2t-23.5 6l-87 29q-15 5 -28 7.5t-25 2.5q-26 0 -47 -18.5t-33 -53.5z" />
<glyph unicode="&#x2dd;" horiz-adv-x="1024" d="M866 1511h129l-252 -348h-71zM604 1511h129l-231 -348h-74z" />
<glyph unicode="&#x3a9;" horiz-adv-x="1585" d="M1452 121v-121h-573v102q218 136 328 307.5t110 376.5q0 269 -146.5 438t-377.5 169t-378 -169t-147 -438q0 -205 110 -376.5t329 -307.5v-102h-572v121h354q-183 132 -271.5 295.5t-88.5 369.5q0 317 188.5 522t475.5 205q286 0 474.5 -205t188.5 -522 q0 -206 -88.5 -369.5t-271.5 -295.5h356z" />
<glyph unicode="&#x3c0;" horiz-adv-x="1155" d="M1102 958h-182l-119 -565q-14 -62 -21.5 -111t-7.5 -77q0 -59 24.5 -83t84.5 -24q27 0 49.5 2.5t42.5 7.5l-25 -108q-29 -9 -52 -12.5t-44 -3.5q-92 0 -145.5 54t-53.5 148q0 47 11.5 122.5t44.5 228.5l88 421h-381l-203 -958h-121l201 958h-39q-55 0 -85.5 -32 t-41.5 -101h-121q25 135 85 186.5t206 51.5h829z" />
<glyph unicode="&#x2013;" horiz-adv-x="1024" d="M-61 469l18 90h1028l-20 -90h-1026z" />
<glyph unicode="&#x2014;" horiz-adv-x="2048" d="M2005 559l-18 -90h-2048l18 90h2048z" />
<glyph unicode="&#x2018;" horiz-adv-x="403" d="M479 1475l-157 -371h-162l202 371h117z" />
<glyph unicode="&#x2019;" horiz-adv-x="403" d="M154 1104l157 371h162l-203 -371h-116z" />
<glyph unicode="&#x201a;" horiz-adv-x="403" d="M-145 -201l157 369h162l-203 -369h-116z" />
<glyph unicode="&#x201c;" horiz-adv-x="717" d="M793 1475l-158 -371h-162l203 371h117zM479 1475l-157 -371h-162l202 371h117z" />
<glyph unicode="&#x201d;" horiz-adv-x="717" d="M467 1104l158 371h161l-202 -371h-117zM154 1104l157 371h162l-203 -371h-116z" />
<glyph unicode="&#x201e;" horiz-adv-x="717" d="M166 -201l160 369h161l-202 -369h-119zM-145 -201l157 369h162l-203 -369h-116z" />
<glyph unicode="&#x2020;" d="M252 0l217 1018h-287l23 104h287l73 353h123l-76 -353h287l-22 -104h-287l-215 -1018h-123z" />
<glyph unicode="&#x2021;" d="M252 0l72 332h-287l20 100h287l129 610h-285l21 99h287l69 334h123l-72 -334h287l-20 -99h-287l-129 -610h285l-21 -100h-287l-69 -332h-123z" />
<glyph unicode="&#x2022;" horiz-adv-x="1208" d="M307 762q0 123 87 209t210 86q122 0 208.5 -86.5t86.5 -208.5t-87.5 -209.5t-209.5 -87.5q-123 0 -209 87t-86 210z" />
<glyph unicode="&#x2026;" horiz-adv-x="2048" d="M110 0l33 154h153l-32 -154h-154zM792 0l33 154h153l-32 -154h-154zM1477 0l33 154h153l-32 -154h-154z" />
<glyph unicode="&#x2030;" horiz-adv-x="2042" d="M1677 627q-41 0 -73.5 -26.5t-49.5 -74.5q-30 -87 -48.5 -183t-18.5 -153q0 -60 27 -91t79 -31q48 0 81 33.5t57 107.5q26 77 41.5 161t15.5 138q0 61 -27 90t-84 29zM1376 197q0 87 24 192.5t60 181.5q34 72 87.5 107t127.5 35q108 0 165.5 -54t57.5 -155 q0 -89 -24 -201t-62 -192q-29 -64 -85 -96.5t-136 -32.5q-102 0 -158.5 56t-56.5 159zM1053 627q-42 0 -75.5 -26.5t-49.5 -74.5q-30 -86 -48 -181t-18 -155t27 -91t80 -31q47 0 80 33.5t57 107.5q26 77 41.5 161t15.5 138q0 61 -26.5 90t-83.5 29zM752 197q0 89 23 194.5 t59 179.5q34 72 87 107t128 35q108 0 165.5 -54t57.5 -155q0 -89 -24.5 -201t-61.5 -192q-30 -64 -85 -96.5t-134 -32.5q-102 0 -158.5 56t-56.5 159zM156 -25l977 1475h114l-977 -1475h-114zM432 1362q-42 0 -75 -26.5t-50 -73.5q-29 -86 -47 -182t-18 -156q0 -61 26.5 -92 t79.5 -31q47 0 80 33.5t57 107.5q27 78 42.5 162t15.5 139q0 61 -27 90t-84 29zM131 930q0 90 23 196t59 181q34 70 87 104.5t128 34.5q108 0 165.5 -54t57.5 -155q0 -88 -24 -199t-62 -192q-29 -64 -84.5 -96.5t-134.5 -32.5q-103 0 -159 55.5t-56 157.5z" />
<glyph unicode="&#x2039;" horiz-adv-x="451" d="M416 911l-238 -385l74 -409h-105l-96 426l254 368h111z" />
<glyph unicode="&#x203a;" horiz-adv-x="451" d="M-70 117l238 387l-74 407h105l96 -424l-254 -370h-111z" />
<glyph unicode="&#x20a3;" horiz-adv-x="1384" d="M-12 0l313 1475h625l-23 -111h-493l-117 -549h463l-23 -108h-465l-149 -707h-131zM811 0l170 801q12 54 21.5 111.5t15.5 115.5h115l-25 -149q51 80 116 117.5t153 37.5q16 0 25 -0.5t15 -1.5l-22 -110h-25q-120 0 -199 -84.5t-114 -249.5l-125 -588h-121z" />
<glyph unicode="&#x20ac;" d="M27 809l32 78h140q24 103 49 189.5t41 119.5q63 140 146.5 198t217.5 58q146 0 222.5 -83t76.5 -239q0 -26 -2.5 -54.5t-7.5 -63.5h-127q5 31 7.5 61t2.5 57q0 109 -44 162.5t-134 53.5q-86 0 -138 -38t-95 -139q-18 -38 -38 -106t-46 -176h446l-33 -78h-430 q-10 -48 -28 -146l-4 -22h389l-35 -78h-369q-13 -73 -18.5 -128t-5.5 -99q0 -134 45.5 -194t144.5 -60q110 0 173.5 75.5t94.5 243.5h129q-35 -212 -132.5 -319t-256.5 -107q-169 0 -250 87.5t-81 271.5q0 48 6 104t18 125h-153l34 78h133q5 24 17 80t18 88h-155z" />
<glyph unicode="&#x2122;" horiz-adv-x="1706" d="M926 1454l174 -440l162 440h102v-530h-59v479l-181 -479h-49l-190 479v-479h-60v530h101zM694 1454v-51h-174v-479h-67v479h-179v51h420z" />
<glyph unicode="&#x2202;" horiz-adv-x="1024" d="M750 578q11 69 16.5 144.5t5.5 160.5q0 179 -38 266.5t-116 87.5q-45 0 -99.5 -73.5t-108.5 -73.5q-29 0 -48.5 18.5t-19.5 46.5q0 59 61 102t148 43q160 0 254 -147t94 -401q0 -335 -131.5 -557t-323.5 -222q-139 0 -224 105t-85 280q0 173 107 296.5t258 123.5 q97 0 158.5 -49t91.5 -151zM713 459q0 125 -47 190.5t-138 65.5q-117 0 -190.5 -125t-73.5 -330q0 -117 47.5 -179.5t137.5 -62.5q114 0 189 125.5t75 315.5z" />
<glyph unicode="&#x2206;" horiz-adv-x="1335" d="M1155 121l-487 1233l-490 -1233h977zM754 1473l592 -1473h-1358l594 1473h172z" />
<glyph unicode="&#x220f;" horiz-adv-x="1491" d="M164 1473h1163v-1866h-135v1743h-893v-1743h-135v1866z" />
<glyph unicode="&#x2211;" horiz-adv-x="1290" d="M45 1473h1208v-123h-1038l721 -787l-760 -835h1077v-121h-1243v127l752 829l-717 787v123z" />
<glyph unicode="&#x2212;" horiz-adv-x="1706" d="M1452 651v-82h-1198v82h1198z" />
<glyph unicode="&#x2215;" horiz-adv-x="342" d="M682 1450l-922 -1475h-102l924 1475h100z" />
<glyph unicode="&#x2219;" horiz-adv-x="469" d="M137 713q0 38 27 65t65 27q40 0 65 -26t25 -66q0 -41 -25 -66.5t-65 -25.5q-38 0 -65 26.5t-27 65.5z" />
<glyph unicode="&#x221a;" horiz-adv-x="1264" d="M1264 1626v-61h-129l-596 -1606h-31l-330 907l-110 -39l-15 50l230 79l278 -759l531 1429h172z" />
<glyph unicode="&#x221e;" horiz-adv-x="1706" d="M889 557q54 -103 125 -154t162 -51q107 0 176 78t69 199q0 119 -63.5 196.5t-159.5 77.5q-87 0 -157.5 -77.5t-151.5 -268.5zM819 670q-52 102 -123.5 153t-163.5 51q-108 0 -176.5 -77.5t-68.5 -198.5q0 -118 63.5 -195t159.5 -77q88 0 158 76t151 268zM836 713 q66 139 146 206.5t177 67.5q130 0 219.5 -106t89.5 -265q0 -165 -80 -266.5t-210 -101.5q-94 0 -165.5 60.5t-142.5 201.5q-71 -139 -148.5 -203.5t-172.5 -64.5q-130 0 -220.5 106.5t-90.5 263.5q0 166 80 267.5t210 101.5q98 0 172.5 -64.5t135.5 -203.5z" />
<glyph unicode="&#x222b;" horiz-adv-x="948" d="M401 578q0 498 86.5 733t268.5 235q65 0 106 -35t41 -90q0 -45 -27.5 -71.5t-74.5 -26.5q-77 0 -101.5 64.5t-33.5 64.5q-67 0 -93 -159t-26 -687q0 -509 -85.5 -743t-268.5 -234q-64 0 -106 34.5t-42 84.5q0 48 28.5 77.5t76.5 29.5q33 0 56 -13.5t40 -42.5 q8 -14 12.5 -44.5t24.5 -30.5q66 0 92 165t26 689z" />
<glyph unicode="&#x2248;" horiz-adv-x="1706" d="M1530 485q-106 -74 -202 -110.5t-185 -36.5q-106 0 -295.5 70.5t-282.5 70.5q-83 0 -171 -35.5t-216 -124.5v93q105 73 201 109t186 36q106 0 295.5 -69.5t282.5 -69.5q83 0 171 35.5t216 124.5v-93zM1530 809q-105 -73 -200.5 -109t-186.5 -36q-106 0 -295.5 69.5 t-282.5 69.5q-83 0 -171 -35.5t-216 -124.5v92q106 75 202 111.5t185 36.5q106 0 295.5 -71t282.5 -71q81 0 168.5 36t218.5 126v-94z" />
<glyph unicode="&#x2260;" horiz-adv-x="1706" d="M1280 1108l-217 -277h389v-79h-440l-219 -283h659v-82h-711l-254 -324l-61 48l215 276h-387v82h436l221 283h-657v79h709l254 326z" />
<glyph unicode="&#x2264;" horiz-adv-x="1706" d="M1442 129v-80h-1178v80h1178zM1442 1083l-1043 -350l1043 -352v-88l-1178 405v70l1178 403v-88z" />
<glyph unicode="&#x2265;" horiz-adv-x="1706" d="M1442 129v-80h-1178v80h1178zM1442 768v-70l-1178 -405v88l1043 352l-1043 350v88z" />
<glyph unicode="&#x25ca;" horiz-adv-x="1012" d="M506 1409l-385 -817l385 -825l385 825zM506 1653l500 -1061l-500 -1069l-500 1069z" />
<glyph unicode="&#x25fc;" horiz-adv-x="1030" d="M0 1030h1030v-1030h-1030v1030z" />
<glyph unicode="&#xf000;" horiz-adv-x="1618" d="M836 1216q-1 6 -1.5 14t-0.5 23q0 124 95 229.5t236 131.5q1 -10 1.5 -23t0.5 -39q0 -131 -103.5 -234.5t-203.5 -103.5h-8q-3 0 -7.5 1t-8.5 1zM1505 403q-114 -247 -205 -342.5t-204 -95.5q-50 0 -131.5 33t-122.5 33q-45 0 -131 -33t-127 -33q-64 0 -128.5 44 t-129.5 132q-102 140 -157.5 295.5t-55.5 300.5q0 219 125 356.5t323 137.5q68 0 155 -34t124 -34q34 0 121.5 35t152.5 35q110 0 198 -40t161 -124q-102 -65 -151.5 -145.5t-49.5 -182.5q0 -113 60 -200t173 -138z" />
<glyph unicode="&#xf001;" horiz-adv-x="874" d="M2 0l195 930h-185l21 98h184l31 150q37 184 105 250.5t214 66.5q13 0 28 -2t46 -8l-20 -96q-21 3 -38 4.5t-30 1.5q-77 0 -115.5 -43.5t-64.5 -169.5l-31 -154h205l-23 -98h-205l-196 -930h-121zM731 1323l33 152h145l-32 -152h-146zM463 0l219 1028h121l-219 -1028h-121 z" />
<glyph unicode="&#xf002;" horiz-adv-x="874" d="M2 0l195 930h-185l21 98h184l35 154q41 189 108 253t211 64q13 0 28.5 -2t45.5 -8l-21 -96q-19 3 -37 4.5t-32 1.5q-75 0 -112 -40.5t-66 -172.5l-35 -158h205l-23 -98h-205l-196 -930h-121zM463 0l313 1475h121l-313 -1475h-121z" />
</font>
</defs>
</svg>
